<svg xmlns="http://www.w3.org/2000/svg" xmlns:xlink="http://www.w3.org/1999/xlink" width="1000" zoomAndPan="magnify" viewBox="0 0 750 374.999991" height="500" preserveAspectRatio="xMidYMid meet" version="1.0"><defs><clipPath id="834aea67fb"><path d="M 306.761719 51 L 748.835938 51 L 748.835938 338.882812 L 306.761719 338.882812 Z M 306.761719 51 " clip-rule="nonzero"/></clipPath><clipPath id="dd8ea4a060"><path d="M 640.765625 36.289062 L 648.839844 36.289062 L 648.839844 45 L 640.765625 45 Z M 640.765625 36.289062 " clip-rule="nonzero"/></clipPath><clipPath id="63e728b7fe"><path d="M 649 36.289062 L 660.949219 36.289062 L 660.949219 48 L 649 48 Z M 649 36.289062 " clip-rule="nonzero"/></clipPath></defs><path fill="#a6a6a6" d="M 3.4375 81.886719 C 3.4375 81.886719 2.617188 82.429688 1.800781 81.609375 C 0.984375 80.789062 0.4375 79.699219 0.4375 79.699219 L 1.257812 78.0625 L 3.4375 77.789062 L 5.078125 78.882812 L 6.710938 79.152344 L 7.53125 77.246094 C 8.894531 76.972656 9.988281 76.695312 9.988281 76.695312 L 11.351562 78.609375 L 11.898438 80.519531 C 12.714844 81.886719 11.898438 83.519531 11.898438 83.519531 C 10.53125 84.339844 8.894531 83.792969 8.894531 83.792969 L 6.984375 84.066406 L 5.078125 86.527344 C 3.164062 85.703125 2.617188 84.066406 2.617188 84.066406 L 3.4375 81.886719 " fill-opacity="1" fill-rule="nonzero"/><path fill="#a6a6a6" d="M 2.617188 82.429688 C 0.710938 82.429688 0.710938 82.429688 0.710938 82.429688 L 0.4375 79.699219 " fill-opacity="1" fill-rule="nonzero"/><path fill="#a6a6a6" d="M 8.492188 85.84375 L 8.894531 87.890625 L 9.167969 90.074219 L 7.941406 91.167969 C 7.941406 91.167969 6.984375 91.03125 6.578125 90.347656 C 6.167969 89.664062 6.441406 88.300781 6.441406 88.300781 L 7.53125 87.207031 L 8.492188 85.84375 " fill-opacity="1" fill-rule="nonzero"/><path fill="#a6a6a6" d="M 24.042969 72.601562 C 24.042969 72.601562 24.722656 70.554688 24.589844 70.144531 C 24.449219 69.734375 23.90625 69.054688 23.90625 69.054688 L 24.042969 67.277344 L 24.859375 65.640625 C 25.546875 65.367188 26.910156 66.324219 26.910156 66.324219 L 27.453125 67.007812 L 29.230469 65.640625 L 30.046875 67.144531 L 30.589844 68.507812 L 30.320312 70.554688 L 31 72.46875 L 32.640625 73.558594 L 34.277344 74.238281 L 35.644531 75.058594 L 37.144531 74.785156 L 38.507812 76.285156 C 39.597656 77.105469 41.921875 77.105469 41.921875 77.105469 L 43.964844 77.378906 C 44.785156 78.0625 47.242188 76.015625 47.242188 76.015625 L 48.332031 75.195312 L 49.5625 76.148438 L 50.246094 77.65625 L 51.609375 78.472656 C 51.609375 78.472656 52.425781 79.96875 52.289062 80.519531 C 52.152344 81.066406 52.5625 82.839844 52.5625 82.839844 L 52.972656 84.75 L 54.066406 86.800781 C 55.023438 87.074219 56.386719 86.800781 56.386719 86.800781 L 57.617188 87.890625 L 59.113281 85.433594 C 60.207031 86.527344 61.296875 87.480469 61.296875 87.480469 L 63.070312 86.664062 C 63.070312 86.664062 64.164062 86.113281 64.574219 86.9375 C 64.984375 87.757812 66.34375 88.84375 65.527344 89.394531 C 64.710938 89.9375 63.621094 90.894531 62.660156 91.441406 C 61.707031 91.984375 61.570312 92.667969 62.117188 92.941406 C 62.660156 93.214844 64.574219 94.03125 64.574219 94.03125 C 64.574219 94.03125 65.664062 94.578125 65.253906 95.261719 C 64.84375 95.945312 64.300781 96.765625 64.03125 97.445312 C 63.753906 98.125 64.574219 98.261719 64.574219 99.082031 C 64.574219 99.902344 64.164062 100.859375 63.621094 101.539062 C 63.070312 102.222656 62.933594 103.042969 62.117188 103.175781 C 61.296875 103.3125 60.066406 102.632812 59.65625 102.90625 C 59.25 103.175781 59.523438 103.175781 59.25 104.269531 C 58.976562 105.367188 58.976562 106.59375 58.84375 107.136719 C 58.703125 107.679688 59.113281 107.953125 59.65625 108.773438 C 60.207031 109.59375 62.523438 111.367188 62.523438 111.367188 C 62.523438 111.367188 63.753906 112.460938 64.03125 113.144531 C 64.300781 113.824219 64.710938 115.328125 64.710938 115.328125 L 65.664062 116.28125 L 67.300781 115.054688 L 69.484375 114.097656 L 70.027344 113.414062 L 70.027344 111.777344 L 70.167969 109.730469 L 70.714844 108.367188 L 72.078125 107.679688 L 74.535156 107.546875 L 75.488281 106.046875 L 76.035156 105.226562 L 77.808594 104.546875 L 80.539062 104.816406 L 81.902344 104.679688 L 83.8125 102.765625 L 85.175781 101.816406 C 85.175781 101.816406 86.40625 102.496094 86.539062 103.042969 C 86.679688 103.585938 87.769531 104.953125 87.769531 104.953125 C 87.769531 104.953125 89.40625 104.816406 89.273438 105.5 C 89.132812 106.183594 88.722656 107.820312 88.722656 108.5 C 88.722656 109.183594 88.996094 111.367188 89.273438 110.414062 C 89.542969 109.457031 92.136719 109.046875 92.136719 109.046875 L 93.910156 109.183594 L 95.546875 110.824219 L 96.910156 110.003906 L 98.683594 107.546875 L 100.460938 105.910156 L 101.277344 104.679688 L 101.277344 100.3125 L 103.328125 97.035156 L 104.964844 94.714844 L 107.285156 91.851562 L 108.375 90.347656 L 107.828125 88.574219 L 110.011719 88.433594 L 111.925781 89.253906 L 114.242188 89.394531 C 114.242188 89.394531 115.746094 89.664062 116.699219 89.9375 C 117.65625 90.214844 119.292969 91.167969 119.292969 91.167969 C 119.292969 91.167969 120.523438 92.667969 120.523438 93.214844 C 120.523438 93.757812 121.75 96.214844 121.886719 96.902344 C 122.019531 97.582031 123.246094 99.355469 123.246094 99.902344 C 123.246094 100.449219 126.386719 104.816406 127.070312 105.367188 C 127.753906 105.910156 129.253906 107.546875 129.253906 107.546875 L 131.027344 108.910156 C 131.027344 108.910156 133.078125 110.6875 133.347656 111.367188 C 133.621094 112.050781 135.121094 113.824219 135.121094 113.824219 L 138.125 116.011719 C 138.125 116.011719 140.992188 118.191406 141.671875 118.464844 C 142.355469 118.738281 145.898438 120.652344 145.898438 120.652344 L 148.359375 122.421875 C 148.359375 122.421875 149.996094 123.925781 150.40625 124.609375 C 150.8125 125.292969 152.449219 127.476562 152.726562 128.023438 C 153 128.570312 159.140625 139.078125 159.140625 139.898438 C 159.140625 140.714844 162.144531 144.402344 162.144531 145.355469 C 162.144531 146.3125 164.1875 149.722656 164.1875 149.722656 L 165.824219 152.589844 L 167.460938 155.183594 C 167.460938 155.183594 167.597656 156.550781 167.328125 157.503906 C 167.054688 158.464844 167.328125 158.871094 167.1875 160.234375 C 167.054688 161.601562 167.597656 161.464844 167.734375 162.695312 C 167.871094 163.921875 168.554688 164.738281 168.554688 165.558594 C 168.554688 166.378906 170.191406 165.699219 169.371094 167.335938 C 168.554688 168.972656 168.007812 168.5625 167.871094 169.382812 C 167.734375 170.203125 167.734375 169.519531 168.144531 171.566406 C 168.554688 173.613281 168.960938 174.15625 169.371094 174.839844 C 169.78125 175.527344 170.191406 176.34375 169.78125 177.574219 C 169.371094 178.800781 169.511719 178.9375 169.238281 179.617188 C 168.960938 180.300781 167.1875 181.53125 166.777344 182.488281 C 166.367188 183.4375 165.414062 183.4375 164.867188 185.214844 C 164.324219 186.992188 165.277344 187.945312 165.140625 189.171875 C 165.003906 190.402344 166.367188 191.359375 166.097656 192.3125 C 165.824219 193.265625 165.414062 193.949219 164.460938 195.046875 C 163.507812 196.132812 163.640625 195.316406 163.367188 197.363281 C 163.097656 199.410156 163.234375 200.371094 162.960938 201.734375 C 162.6875 203.097656 162.960938 203.097656 163.234375 204.734375 C 163.507812 206.371094 164.734375 209.238281 164.734375 209.238281 C 164.734375 209.238281 165.957031 210.878906 166.777344 211.425781 C 167.597656 211.96875 168.554688 212.789062 168.554688 213.609375 C 168.554688 214.429688 167.460938 218.65625 167.460938 218.65625 C 167.460938 218.65625 166.507812 221.523438 166.367188 222.207031 C 166.234375 222.890625 166.234375 225.484375 166.367188 226.300781 C 166.507812 227.117188 167.328125 226.984375 167.1875 229.035156 C 167.054688 231.082031 166.367188 235.449219 166.367188 235.449219 C 166.367188 235.449219 167.1875 235.449219 166.777344 238.042969 C 166.367188 240.632812 166.367188 242.273438 166.367188 242.824219 C 166.367188 243.363281 167.597656 245.820312 168.007812 246.507812 C 168.417969 247.1875 173.058594 252.101562 173.058594 252.101562 L 176.605469 254.554688 L 178.242188 255.515625 L 180.972656 256.46875 L 183.292969 257.699219 C 183.292969 257.699219 184.386719 259.332031 184.519531 260.019531 C 184.65625 260.695312 184.792969 261.246094 184.25 262.203125 C 183.703125 263.15625 184.113281 264.382812 184.113281 264.382812 L 185.746094 265.753906 C 185.746094 265.753906 186.429688 266.296875 187.386719 267.390625 C 188.339844 268.480469 189.429688 269.84375 189.429688 269.84375 L 191.207031 272.441406 L 191.207031 273.941406 C 191.207031 273.941406 190.660156 274.351562 190.523438 275.304688 C 190.390625 276.265625 192.164062 277.761719 192.433594 278.445312 C 192.707031 279.128906 194.617188 281.449219 194.617188 281.449219 C 194.617188 281.449219 195.984375 282.8125 196.253906 283.632812 C 196.527344 284.453125 197.347656 286.5 197.347656 287.320312 C 197.347656 288.140625 197.347656 287.863281 197.347656 289.640625 C 197.347656 291.414062 197.621094 291.824219 198.578125 292.230469 C 199.53125 292.640625 200.621094 293.730469 201.304688 294.417969 C 201.984375 295.101562 203.078125 298.101562 203.078125 298.101562 C 203.078125 298.101562 203.078125 299.875 203.351562 300.96875 C 203.625 302.0625 204.71875 303.289062 204.988281 303.976562 C 205.265625 304.652344 205.128906 306.699219 205.265625 307.519531 C 205.398438 308.339844 205.671875 308.480469 205.941406 309.296875 C 206.21875 310.117188 205.265625 314.074219 205.265625 314.074219 C 205.265625 314.074219 205.539062 314.757812 204.441406 314.890625 C 203.351562 315.03125 203.488281 315.300781 201.304688 315.300781 C 199.121094 315.300781 199.121094 315.980469 197.894531 315.03125 C 196.664062 314.074219 196.664062 314.757812 196.664062 313.527344 C 196.664062 312.296875 197.210938 310.253906 197.210938 310.253906 C 197.210938 310.253906 197.210938 309.976562 195.84375 309.976562 C 194.480469 309.976562 194.617188 310.117188 193.800781 310.660156 C 192.980469 311.203125 191.34375 311.203125 190.660156 311.203125 C 189.980469 311.203125 189.429688 311.070312 188.613281 311.070312 C 187.796875 311.070312 186.15625 310.660156 186.15625 310.660156 L 183.566406 308.203125 L 181.105469 308.75 C 181.105469 308.75 180.835938 309.160156 179.878906 309.296875 C 178.921875 309.433594 177.96875 309.976562 177.96875 309.976562 C 177.96875 309.976562 177.425781 310.117188 177.015625 311.070312 C 176.605469 312.023438 176.332031 314.210938 175.652344 314.210938 C 174.96875 314.210938 175.378906 315.300781 174.421875 315.164062 C 173.46875 315.03125 173.46875 315.03125 172.101562 315.03125 C 170.738281 315.03125 171.144531 315.164062 170.601562 315.707031 C 170.058594 316.257812 170.738281 316.664062 169.917969 316.9375 C 169.101562 317.210938 167.1875 316.121094 167.1875 316.121094 C 167.1875 316.121094 164.324219 307.519531 163.917969 306.839844 C 163.507812 306.15625 163.097656 305.339844 162.277344 305.066406 C 161.457031 304.792969 159.410156 303.976562 159.410156 303.976562 L 157.5 302.738281 L 155.183594 301.511719 C 155.183594 301.511719 153.542969 300.832031 152.859375 300.285156 C 152.179688 299.738281 150.949219 299.195312 150.949219 299.195312 C 150.949219 299.195312 148.628906 295.921875 148.085938 296.054688 C 147.542969 296.191406 143.851562 296.328125 143.851562 296.328125 L 143.171875 295.511719 C 143.171875 295.511719 142.082031 294.007812 141.261719 293.320312 C 140.445312 292.640625 140.582031 292.777344 139.351562 291.683594 C 138.125 290.597656 138.394531 290.1875 137.300781 290.320312 C 136.214844 290.457031 135.53125 290.457031 134.578125 290.457031 C 133.621094 290.457031 133.894531 291.683594 132.664062 290.320312 C 131.4375 288.957031 130.890625 288.679688 130.074219 287.589844 C 129.253906 286.5 129.253906 286.5 128.300781 285.273438 C 127.34375 284.042969 122.292969 278.988281 122.292969 278.988281 C 122.292969 278.988281 119.839844 277.351562 118.609375 277.351562 C 117.378906 277.351562 117.519531 277.21875 115.746094 276.265625 C 113.972656 275.304688 113.289062 274.214844 111.648438 273.941406 C 110.011719 273.664062 111.515625 275.304688 108.644531 273.121094 C 105.785156 270.945312 105.644531 270.945312 104.828125 270.121094 C 104.011719 269.300781 101.007812 266.023438 101.007812 266.023438 L 97.867188 263.566406 C 97.867188 263.566406 96.230469 262.339844 95.410156 261.382812 C 94.59375 260.429688 94.316406 260.289062 93.773438 259.46875 C 93.230469 258.652344 93.089844 258.515625 92.546875 257.699219 C 92 256.878906 91.457031 256.878906 90.90625 256.46875 C 90.363281 256.058594 90.09375 255.925781 88.863281 255.515625 C 87.632812 255.105469 86.40625 255.515625 85.589844 254.828125 C 84.769531 254.144531 84.90625 254.144531 83.402344 253.058594 C 81.902344 251.964844 81.492188 251.6875 79.988281 250.460938 C 78.492188 249.234375 75.078125 245.957031 75.078125 245.957031 C 75.078125 245.957031 73.714844 244.867188 72.894531 244.320312 C 72.078125 243.777344 70.988281 243.230469 70.441406 242.136719 C 69.894531 241.042969 70.304688 240.632812 70.441406 239.679688 C 70.578125 238.726562 69.621094 238.175781 69.621094 238.175781 L 67.710938 237.222656 L 67.984375 234.222656 L 69.894531 233.402344 L 71.125 233.8125 L 72.894531 233.949219 L 73.714844 232.855469 L 72.214844 231.355469 C 72.214844 231.355469 71.394531 230.121094 71.394531 229.578125 C 71.394531 229.035156 71.125 228.078125 70.851562 227.53125 C 70.578125 226.984375 69.761719 225.207031 69.761719 225.207031 C 69.761719 225.207031 69.484375 225.347656 68.804688 224.117188 C 68.121094 222.890625 67.847656 221.660156 67.847656 221.660156 C 67.847656 221.660156 66.890625 221.113281 66.070312 220.292969 C 65.253906 219.476562 64.84375 218.933594 64.300781 218.113281 C 63.753906 217.292969 62.933594 215.113281 62.523438 214.292969 C 62.117188 213.472656 62.25 213.472656 61.4375 212.242188 C 60.613281 211.015625 60.476562 211.285156 59.523438 209.925781 C 58.566406 208.558594 59.65625 209.644531 58.566406 208.558594 C 57.476562 207.464844 56.25 206.371094 56.25 206.371094 C 56.25 206.371094 54.476562 205.144531 54.199219 204.601562 C 53.925781 204.054688 53.105469 202.550781 53.105469 202.550781 L 51.742188 201.597656 C 51.742188 201.597656 50.789062 201.734375 50.382812 200.914062 C 49.972656 200.097656 50.246094 199.410156 49.972656 199.003906 C 49.703125 198.589844 49.292969 198.046875 49.292969 198.046875 L 47.511719 196.953125 C 47.511719 196.953125 46.695312 196.820312 45.875 196.003906 C 45.058594 195.179688 44.917969 195.59375 44.785156 194.636719 C 44.648438 193.675781 45.191406 192.449219 45.328125 191.359375 C 45.46875 190.265625 46.96875 189.445312 46.96875 189.445312 L 47.789062 188.21875 L 46.695312 186.03125 L 44.917969 184.261719 L 43.011719 183.164062 C 43.011719 183.164062 42.601562 183.710938 41.648438 181.941406 C 40.691406 180.164062 40.007812 178.800781 40.007812 178.253906 C 40.007812 177.707031 39.460938 176.890625 39.460938 176.207031 C 39.460938 175.527344 40.28125 171.15625 40.28125 170.613281 C 40.28125 170.0625 41.785156 169.242188 41.785156 169.242188 L 42.601562 167.609375 L 42.191406 165.011719 L 42.058594 164.058594 L 40.144531 163.378906 C 40.144531 163.378906 40.28125 161.738281 40.28125 161.195312 C 40.28125 160.644531 40.554688 159.414062 40.554688 159.414062 L 40.144531 157.914062 L 39.597656 156.550781 L 40.007812 155.730469 L 40.417969 155.046875 C 40.007812 154.09375 39.460938 154.777344 39.1875 154.09375 C 38.917969 153.410156 39.328125 152.046875 39.328125 152.046875 L 38.234375 150.132812 L 37.007812 150.269531 C 37.007812 150.269531 35.917969 151.089844 35.234375 149.722656 C 34.554688 148.359375 34.6875 149.316406 34.554688 148.359375 C 34.414062 147.40625 31.140625 141.125 31.140625 141.125 C 31.140625 141.125 30.1875 139.898438 30.046875 139.078125 C 29.914062 138.257812 31.410156 137.027344 31.410156 137.027344 L 33.050781 134.4375 L 33.183594 130.75 L 32.640625 128.980469 L 31.957031 127.339844 L 32.230469 125.972656 C 32.230469 125.972656 31.820312 125.292969 31.6875 124.476562 C 31.550781 123.65625 31.820312 122.285156 31.820312 122.285156 L 31.140625 120.652344 C 31.140625 120.652344 30.730469 119.964844 30.589844 119.285156 C 30.457031 118.601562 30.589844 116.144531 30.589844 116.144531 L 31.6875 109.730469 C 31.6875 109.730469 31.957031 102.089844 31.820312 101.40625 C 31.6875 100.722656 31.550781 99.355469 31.273438 98.8125 C 31 98.261719 30.457031 97.308594 30.046875 96.355469 C 29.636719 95.394531 25.546875 88.574219 25.136719 88.027344 C 24.722656 87.480469 23.769531 85.570312 23.769531 85.570312 C 23.769531 85.570312 23.496094 84.339844 23.089844 83.65625 C 22.679688 82.976562 22.132812 81.476562 22.132812 81.476562 C 22.132812 81.476562 21.859375 79.289062 21.859375 78.742188 C 21.859375 78.199219 22.132812 76.285156 22.132812 76.285156 L 23.90625 73.148438 L 24.042969 72.601562 " fill-opacity="1" fill-rule="nonzero"/><path fill="#a6a6a6" d="M 24.722656 122.152344 L 27.183594 121.46875 L 28.410156 122.421875 L 29.367188 123.515625 L 30.320312 124.199219 L 29.636719 126.113281 C 29.636719 126.113281 29.636719 127.199219 29.230469 127.886719 C 28.820312 128.570312 28.410156 128.839844 28.273438 129.523438 C 28.140625 130.207031 28.140625 131.296875 28.140625 131.296875 C 28.140625 131.296875 28.683594 132.253906 27.863281 132.523438 C 27.042969 132.800781 26.363281 132.390625 26.363281 132.390625 L 25 131.296875 C 25 131.296875 24.042969 131.160156 23.632812 131.023438 C 23.226562 130.886719 22.679688 131.023438 22.410156 129.933594 C 22.132812 128.839844 23.632812 125.839844 23.632812 125.839844 L 24.179688 124.199219 L 24.722656 122.152344 " fill-opacity="1" fill-rule="nonzero"/><path fill="#a6a6a6" d="M 38.917969 178.9375 L 39.597656 181.53125 C 39.597656 181.53125 39.597656 183.03125 38.78125 182.621094 C 37.960938 182.210938 37.144531 181.667969 37.144531 180.984375 C 37.144531 180.300781 37.691406 179.34375 37.691406 179.34375 L 38.917969 178.9375 " fill-opacity="1" fill-rule="nonzero"/><path fill="#a6a6a6" d="M 199.257812 242.546875 L 200.894531 243.503906 L 201.714844 245.6875 L 202.535156 248.007812 L 202.667969 249.640625 L 201.847656 251.417969 C 201.847656 251.417969 201.164062 252.238281 200.210938 251.828125 C 199.257812 251.417969 198.441406 250.871094 198.03125 250.324219 C 197.621094 249.78125 197.347656 249.371094 197.347656 248.6875 C 197.347656 248.007812 198.167969 247.050781 198.167969 247.050781 L 199.257812 245.820312 L 198.984375 244.050781 C 198.984375 244.050781 198.167969 242.546875 199.257812 242.546875 " fill-opacity="1" fill-rule="nonzero"/><g clip-path="url(#834aea67fb)"><path fill="#a6a6a6" d="M 306.761719 289.09375 C 306.761719 289.09375 307.988281 287.730469 308.53125 287.453125 C 309.074219 287.179688 310.167969 286.910156 310.167969 286.910156 L 311.261719 286.226562 L 311.125 284.042969 L 311.535156 282.539062 C 311.535156 282.539062 311.800781 281.996094 312.082031 282.675781 C 312.351562 283.355469 312.902344 286.089844 312.902344 286.089844 L 313.445312 290.457031 L 314.671875 292.640625 L 319.039062 294.960938 L 320.949219 295.921875 L 322.175781 296.464844 L 322.992188 297.964844 L 323.949219 299.054688 L 326.132812 300.148438 L 327.09375 300.832031 L 327.910156 300.691406 L 328.316406 299.605469 L 330.910156 300.015625 L 332.824219 300.421875 L 337.460938 300.148438 L 339.917969 300.285156 L 341.144531 300.691406 C 341.691406 299.605469 343.054688 297.144531 343.054688 297.144531 L 343.328125 295.511719 L 343.738281 294.691406 C 343.738281 294.691406 344.824219 295.371094 344.824219 296.464844 C 344.824219 297.554688 345.238281 299.054688 345.238281 299.054688 L 346.875 300.015625 L 348.652344 300.421875 L 349.46875 298.101562 L 352.058594 297.691406 C 352.058594 297.691406 353.566406 297.824219 353.15625 298.511719 C 352.746094 299.195312 352.746094 299.464844 351.792969 300.558594 C 350.832031 301.652344 351.105469 303.289062 351.652344 303.425781 C 352.195312 303.566406 354.109375 304.246094 354.109375 304.246094 L 357.65625 304.519531 L 360.527344 306.15625 L 361.890625 307.109375 L 363.117188 306.839844 L 365.300781 305.746094 L 367.617188 306.566406 L 369.667969 307.792969 L 372.121094 308.480469 L 373.621094 309.707031 L 374.988281 311.070312 L 377.035156 312.84375 L 379.351562 314.890625 L 383.175781 315.707031 L 384.675781 315.164062 L 386.996094 314.757812 L 388.628906 315.707031 L 389.589844 317.347656 L 390.273438 316.53125 L 389.589844 315.03125 L 389.179688 313.9375 L 387.816406 313.527344 C 387.816406 313.527344 386.585938 314.347656 385.902344 314.210938 C 385.222656 314.074219 385.492188 313.800781 384.675781 313.800781 C 383.855469 313.800781 383.3125 313.800781 382.632812 313.527344 C 381.949219 313.253906 382.222656 313.660156 381.128906 312.84375 C 380.035156 312.023438 379.351562 311.613281 379.351562 311.613281 L 377.855469 310.660156 L 376.761719 309.707031 L 375.53125 308.203125 C 375.53125 308.203125 375.261719 308.75 374.851562 307.386719 C 374.441406 306.019531 374.574219 304.929688 374.574219 304.246094 C 374.574219 303.566406 375.53125 301.652344 375.53125 301.652344 C 375.53125 301.652344 377.171875 300.285156 377.988281 300.558594 C 378.808594 300.832031 380.992188 300.96875 380.992188 300.96875 L 381.8125 300.691406 C 381.8125 300.691406 379.351562 299.054688 379.21875 298.375 C 379.078125 297.691406 379.21875 297.824219 379.078125 296.871094 C 378.945312 295.921875 379.351562 294.824219 379.351562 294.824219 C 379.351562 294.824219 383.175781 288.40625 383.3125 287.863281 C 383.445312 287.320312 384.265625 283.222656 384.265625 283.222656 L 384.949219 281.449219 L 385.628906 280.21875 L 387.40625 280.085938 L 389.453125 280.628906 L 391.089844 281.585938 L 391.636719 279.128906 L 392.726562 278.578125 L 395.046875 279.671875 L 396.683594 279.808594 L 398.324219 279.671875 L 399.144531 279.128906 L 397.097656 278.445312 L 395.730469 278.578125 L 392.996094 278.035156 L 391.5 278.308594 L 390 278.988281 C 389.042969 279.402344 388.496094 278.988281 387.675781 279.265625 C 386.855469 279.539062 386.445312 279.671875 385.628906 279.539062 C 384.816406 279.402344 384.816406 279.402344 384.816406 279.402344 L 383.855469 275.171875 L 383.996094 272.441406 L 383.855469 270.53125 L 384.132812 268.890625 L 384.265625 267.800781 L 386.71875 266.707031 L 388.222656 266.296875 L 389.859375 267.25 L 391.089844 268.753906 L 392.316406 269.300781 L 394.636719 268.753906 L 396.140625 269.160156 L 398.183594 269.980469 L 399.960938 270.253906 L 401.457031 270.664062 L 402.824219 270.121094 L 404.328125 270.390625 C 405.007812 270.390625 406.238281 271.210938 406.238281 271.210938 L 407.734375 272.988281 L 409.375 273.941406 L 412.515625 275.171875 L 414.835938 275.855469 L 417.015625 276.535156 C 417.015625 276.535156 418.535156 277.960938 418.382812 277.492188 C 418.105469 276.671875 415.378906 274.894531 415.378906 274.894531 L 413.605469 274.625 C 413.605469 274.625 412.789062 274.488281 412.101562 274.078125 C 411.421875 273.664062 410.191406 273.121094 410.191406 273.121094 L 408.695312 272.171875 L 406.78125 271.210938 L 405.828125 269.980469 L 405.144531 268.890625 C 405.144531 268.890625 404.328125 269.300781 403.917969 268.617188 C 403.511719 267.933594 403.101562 267.25 402.957031 266.570312 C 402.824219 265.886719 402.003906 265.203125 402.003906 265.203125 C 402.003906 265.203125 400.914062 265.066406 400.230469 264.523438 C 399.550781 263.976562 399.003906 263.429688 398.324219 263.15625 C 397.640625 262.886719 396.277344 261.792969 396.277344 261.792969 C 396.277344 261.792969 395.1875 262.066406 394.910156 260.839844 C 394.636719 259.609375 394.226562 258.789062 394.089844 257.832031 C 393.953125 256.878906 394.636719 254.554688 394.636719 254.554688 L 395.589844 252.648438 L 397.640625 250.734375 C 397.640625 250.734375 406.101562 248.824219 406.644531 248.007812 C 407.191406 247.1875 410.46875 245.820312 410.46875 245.820312 L 413.46875 245.6875 L 416.472656 244.320312 L 419.203125 243.777344 L 422.472656 244.050781 L 424.929688 243.363281 L 428.886719 242.273438 L 444.171875 238.449219 L 451.402344 236.675781 L 455.496094 235.859375 L 458.636719 234.765625 L 462.460938 234.632812 L 471.328125 229.445312 L 472.144531 228.351562 C 472.144531 228.351562 471.871094 227.257812 471.738281 226.574219 C 471.601562 225.890625 471.738281 224.941406 471.738281 224.941406 C 471.738281 224.941406 472.828125 223.574219 473.785156 222.75 C 474.742188 221.933594 480.0625 217.976562 480.195312 217.292969 C 480.332031 216.609375 483.609375 211.695312 483.609375 211.695312 L 484.5625 209.238281 L 485.65625 206.921875 L 486.882812 205.28125 L 487.292969 204.191406 C 487.292969 204.191406 495.753906 197.910156 495.890625 197.226562 C 496.027344 196.546875 499.164062 194.089844 499.164062 194.089844 L 502.03125 191.765625 L 504.351562 189.039062 L 505.578125 186.71875 L 508.035156 183.851562 L 512.539062 175.117188 L 512.8125 171.15625 L 513.21875 168.289062 L 512.945312 166.242188 L 513.082031 164.46875 L 515.949219 164.605469 L 519.222656 165.421875 L 521.269531 165.699219 L 522.769531 166.652344 L 524.273438 168.289062 L 525.773438 169.382812 C 525.773438 169.382812 527.003906 171.839844 527.546875 172.386719 C 528.09375 172.929688 528.910156 173.613281 528.640625 174.292969 C 528.367188 174.976562 528.230469 176.34375 528.230469 176.890625 C 528.230469 177.433594 528.09375 178.253906 527.953125 179.34375 C 527.820312 180.441406 528.640625 180.984375 528.640625 180.984375 L 534.234375 180.027344 L 535.324219 182.078125 L 536.417969 184.261719 C 536.417969 184.261719 536.691406 184.394531 536.828125 185.078125 C 536.964844 185.765625 539.691406 187.261719 539.691406 187.261719 L 542.011719 189.039062 C 542.011719 189.039062 541.871094 190.265625 542.421875 190.675781 C 542.964844 191.085938 546.789062 189.859375 546.925781 189.039062 C 547.0625 188.21875 548.972656 186.171875 548.972656 186.171875 L 551.292969 184.261719 L 552.109375 180.574219 L 553.203125 177.300781 C 553.203125 177.300781 554.292969 175.9375 554.160156 175.386719 C 554.019531 174.839844 554.160156 173.070312 554.019531 172.386719 C 553.886719 171.703125 551.703125 167.882812 551.566406 167.195312 C 551.425781 166.515625 551.566406 165.699219 551.292969 165.011719 C 551.019531 164.328125 550.882812 163.101562 550.746094 162.421875 C 550.609375 161.738281 550.0625 160.375 550.0625 160.375 C 550.0625 160.375 549.652344 159.28125 549.652344 158.328125 C 549.652344 157.371094 551.835938 156.414062 551.835938 156.414062 L 553.066406 155.457031 L 554.019531 154.09375 L 555.246094 154.09375 L 556.613281 154.636719 L 558.390625 153.140625 L 559.480469 151.226562 L 560.574219 150.679688 C 560.574219 150.679688 560.984375 152.730469 560.984375 153.683594 C 560.984375 154.636719 560.84375 156.414062 560.84375 157.371094 C 560.84375 158.328125 561.527344 160.78125 561.527344 161.871094 C 561.527344 162.96875 561.9375 165.96875 561.9375 165.96875 C 561.9375 165.96875 562.757812 166.789062 562.890625 167.46875 C 563.027344 168.15625 563.570312 169.792969 563.570312 169.792969 C 563.570312 169.792969 563.710938 173.070312 563.570312 173.613281 C 563.4375 174.15625 563.4375 174.15625 563.4375 174.15625 L 568.488281 174.703125 L 571.488281 176.070312 C 571.488281 176.070312 572.441406 176.207031 572.582031 176.753906 C 572.71875 177.300781 573.808594 177.574219 573.808594 177.574219 L 575.039062 177.164062 C 575.039062 177.164062 576.535156 176.070312 575.855469 175.527344 C 575.171875 174.976562 574.085938 173.746094 573.398438 173.339844 C 572.71875 172.929688 572.851562 172.796875 572.582031 172.113281 C 572.308594 171.429688 572.308594 170.882812 572.308594 169.519531 C 572.308594 168.15625 572.71875 166.789062 572.582031 165.832031 C 572.441406 164.878906 572.171875 162.96875 572.171875 162.96875 L 571.214844 161.054688 C 571.214844 161.054688 570.261719 159.964844 570.261719 159.28125 C 570.261719 158.597656 570.535156 157.777344 570.261719 157.234375 C 569.984375 156.683594 570.125 156.550781 569.441406 155.457031 C 568.757812 154.367188 567.804688 153 567.804688 153 C 567.804688 153 567.261719 152.046875 566.714844 151.5 C 566.164062 150.949219 565.484375 149.863281 565.484375 149.863281 L 568.078125 147.132812 L 570.125 147.816406 L 572.441406 149.863281 L 576.125 149.722656 L 578.859375 147.675781 L 581.863281 144.402344 L 583.085938 141.941406 L 584.585938 140.171875 C 584.585938 140.171875 585.542969 139.21875 585.269531 138.53125 C 584.996094 137.847656 584.585938 136.621094 584.585938 136.621094 C 584.585938 136.621094 584.867188 135.664062 583.632812 135.390625 C 582.40625 135.121094 581.996094 134.574219 580.769531 134.164062 C 579.539062 133.753906 578.71875 133.753906 577.765625 132.800781 C 576.808594 131.84375 576.945312 132.933594 576.125 131.433594 C 575.3125 129.933594 575.039062 129.800781 575.039062 128.839844 C 575.039062 127.886719 576.671875 125.566406 576.671875 125.566406 L 580.222656 123.382812 L 582.542969 120.785156 L 584.316406 118.738281 L 584.585938 116.964844 L 585.816406 115.738281 L 587.320312 118.328125 L 588.273438 119.832031 L 590.730469 120.652344 L 593.867188 121.058594 L 596.597656 119.964844 L 597.960938 118.738281 L 599.328125 116.144531 L 599.328125 112.867188 L 599.871094 110.824219 C 599.871094 110.824219 601.234375 108.910156 601.785156 108.5 C 602.332031 108.089844 604.238281 107 604.238281 107 L 606.007812 105.636719 L 606.289062 101.539062 L 605.738281 98.8125 L 608.195312 99.765625 L 609.96875 98.402344 C 609.96875 98.402344 610.789062 97.175781 610.652344 96.628906 C 610.519531 96.082031 611.335938 94.578125 610.652344 94.578125 C 609.96875 94.578125 609.011719 94.308594 609.011719 94.308594 C 609.011719 94.308594 608.46875 93.488281 609.011719 92.53125 C 609.558594 91.578125 612.425781 89.117188 612.425781 89.117188 L 613.65625 87.757812 L 614.882812 85.976562 L 616.519531 85.296875 L 618.429688 84.339844 L 617.476562 81.75 L 624.164062 77.378906 L 625.933594 75.46875 L 626.476562 73.96875 L 627.570312 71.78125 L 630.441406 68.097656 L 631.394531 67.554688 L 632.214844 65.503906 L 631.121094 63.59375 L 631.53125 62.09375 L 632.757812 61 L 632.214844 59.90625 L 632.074219 58.679688 C 632.074219 58.679688 633.710938 57.449219 633.984375 56.632812 C 634.257812 55.808594 635.21875 53.21875 635.21875 53.21875 L 636.171875 51.171875 C 636.171875 51.171875 637.671875 51.582031 638.082031 52.125 C 638.488281 52.675781 640.128906 54.722656 640.128906 55.402344 C 640.128906 56.085938 640.808594 57.316406 640.808594 58.136719 C 640.808594 58.953125 641.355469 60.042969 641.355469 60.863281 C 641.355469 61.683594 641.765625 61.953125 641.082031 63.324219 C 640.398438 64.683594 639.851562 65.503906 639.035156 66.734375 C 638.21875 67.960938 637.945312 68.644531 637.535156 69.464844 C 637.128906 70.28125 637.128906 72.46875 637.128906 72.46875 C 637.128906 72.46875 637.671875 73.695312 638.355469 73.421875 C 639.035156 73.148438 641.21875 71.238281 641.21875 71.238281 L 643.128906 69.464844 L 644.359375 67.554688 L 646.269531 66.1875 L 647.222656 65.230469 L 648.039062 62.773438 L 648.585938 60.316406 L 650.363281 57.316406 C 650.363281 57.316406 649.402344 56.359375 649.269531 55.675781 C 649.132812 54.992188 649.679688 54.449219 649.679688 54.449219 L 654.320312 53.085938 L 656.503906 54.3125 L 657.457031 55.402344 L 658.824219 55.949219 L 658.414062 58.953125 C 658.414062 58.953125 658.277344 59.226562 657.871094 60.179688 C 657.457031 61.132812 657.59375 61.683594 658.003906 62.363281 C 658.414062 63.046875 659.777344 64.820312 659.777344 64.820312 C 659.777344 64.820312 660.460938 65.503906 660.1875 66.324219 C 659.914062 67.144531 659.777344 67.144531 660.320312 68.238281 C 660.871094 69.324219 662.09375 70.417969 662.09375 70.417969 L 664.144531 70.691406 L 665.371094 71.648438 L 666.195312 73.421875 L 668.375 73.421875 L 669.601562 73.011719 L 670.421875 70.28125 L 671.242188 70.554688 L 673.152344 74.238281 L 677.105469 76.425781 L 679.5625 78.609375 L 680.386719 80.382812 C 680.386719 80.382812 681.199219 82.292969 680.65625 83.65625 C 680.109375 85.023438 680.246094 85.296875 680.246094 86.253906 C 680.246094 87.207031 681.066406 88.984375 679.699219 88.84375 C 678.339844 88.710938 677.792969 86.113281 676.96875 87.347656 C 676.152344 88.574219 675.46875 88.574219 675.46875 89.664062 C 675.46875 90.757812 675.199219 91.578125 676.152344 92.394531 C 677.105469 93.214844 678.058594 94.441406 678.058594 94.441406 C 678.058594 94.441406 678.46875 95.671875 678.058594 96.765625 C 677.652344 97.851562 676.835938 99.082031 677.382812 99.492188 C 677.925781 99.902344 678.886719 97.851562 678.203125 100.449219 C 677.515625 103.042969 676.96875 103.722656 678.609375 103.585938 C 680.246094 103.449219 682.703125 102.90625 682.703125 102.90625 L 684.753906 102.089844 L 686.117188 101.269531 L 687.753906 101.40625 C 687.753906 101.40625 688.570312 102.222656 688.570312 101.539062 C 688.570312 100.859375 689.933594 98.402344 689.933594 98.402344 L 691.84375 97.851562 C 691.84375 97.851562 692.941406 97.71875 693.621094 97.992188 C 694.300781 98.261719 696.210938 100.3125 696.210938 100.3125 L 696.484375 102.632812 C 696.484375 102.632812 696.894531 103.722656 696.210938 104.546875 C 695.527344 105.367188 694.710938 107 694.710938 107 C 694.710938 107 694.847656 108.230469 694.027344 107.820312 C 693.210938 107.410156 691.710938 106.59375 691.023438 106.726562 C 690.34375 106.863281 689.386719 107.410156 689.25 107.820312 C 689.117188 108.230469 688.707031 108.5 689.523438 109.183594 C 690.34375 109.867188 691.296875 110.003906 691.296875 110.546875 C 691.296875 111.097656 691.160156 112.183594 691.160156 112.59375 C 691.160156 113.003906 693.210938 113.144531 693.210938 113.144531 L 694.984375 112.460938 L 695.800781 113.554688 C 695.800781 113.554688 698.53125 112.734375 698.53125 112.050781 C 698.53125 111.367188 699.757812 110.957031 699.757812 110.957031 L 700.308594 109.046875 L 700.578125 107.546875 C 700.578125 107.546875 700.714844 105.910156 701.535156 106.046875 C 702.351562 106.183594 704.125 106.453125 704.125 106.453125 L 705.082031 106.863281 L 708.628906 107.410156 L 711.769531 108.089844 L 715.042969 110.6875 L 716.679688 111.777344 L 717.773438 113.28125 L 716.953125 116.28125 L 717.910156 118.191406 L 719.546875 118.191406 L 720.777344 115.738281 L 722.140625 115.738281 L 724.867188 118.058594 L 727.1875 119.558594 L 728.6875 121.46875 L 731.691406 123.515625 L 733.054688 124.476562 L 733.328125 125.429688 C 733.328125 125.429688 732.78125 126.65625 732.78125 127.066406 C 732.78125 127.476562 734.417969 127.339844 734.417969 127.339844 L 735.515625 126.519531 L 735.921875 125.292969 L 738.515625 125.839844 L 740.699219 125.703125 L 742.335938 125.15625 L 743.972656 123.382812 C 743.972656 123.382812 748.203125 126.519531 748.203125 127.339844 C 748.203125 128.160156 749.023438 128.160156 748.613281 129.660156 C 748.203125 131.160156 748.339844 132.253906 748.203125 133.074219 C 748.066406 133.894531 749.15625 134.574219 748.75 135.390625 C 748.339844 136.210938 744.925781 139.078125 743.5625 139.761719 C 742.199219 140.445312 739.605469 141.941406 739.605469 141.941406 C 739.605469 141.941406 738.785156 142.628906 737.289062 143.039062 C 735.785156 143.445312 737.148438 142.902344 734.964844 143.3125 C 732.78125 143.722656 733.742188 143.039062 732.238281 143.859375 C 730.738281 144.675781 731.691406 144.265625 729.917969 145.21875 C 728.144531 146.175781 727.738281 147.816406 726.230469 147.539062 C 724.730469 147.265625 725.277344 147.539062 723.503906 147.132812 C 721.730469 146.722656 718.726562 146.585938 718.726562 146.585938 L 716.953125 147.816406 C 715.59375 148.496094 715.316406 148.496094 714.363281 147.675781 C 713.40625 146.859375 713.40625 146.3125 713.132812 145.355469 C 712.859375 144.402344 713.40625 144.132812 712.449219 143.859375 C 711.492188 143.582031 710.949219 143.445312 710.949219 143.445312 L 709.722656 144.265625 C 709.722656 144.265625 710.265625 144.808594 709.585938 145.355469 C 708.902344 145.902344 707.949219 146.585938 707.125 146.585938 C 706.3125 146.585938 705.082031 146.445312 705.082031 146.445312 L 702.894531 146.039062 C 702.894531 146.039062 702.351562 146.3125 701.808594 146.996094 C 701.265625 147.675781 701.535156 148.496094 700.714844 149.316406 C 699.898438 150.132812 699.214844 149.046875 699.898438 150.132812 C 700.578125 151.226562 701.671875 151.769531 702.625 152.863281 C 703.578125 153.957031 703.714844 154.777344 703.988281 155.320312 C 704.265625 155.863281 704.265625 155.730469 704.398438 157.644531 C 704.535156 159.554688 705.351562 161.054688 705.898438 161.328125 C 706.445312 161.601562 707.539062 162.28125 708.222656 162.28125 C 708.902344 162.28125 709.859375 162.96875 709.859375 162.96875 L 711.492188 164.058594 L 713.40625 163.511719 L 715.449219 164.878906 L 715.59375 166.242188 C 715.59375 166.242188 714.089844 166.652344 714.226562 167.46875 C 714.363281 168.289062 715.59375 168.832031 716.136719 168.832031 C 716.679688 168.832031 717.910156 167.46875 717.910156 167.46875 L 719.546875 166.789062 L 721.046875 167.335938 L 721.730469 169.382812 L 721.867188 171.019531 C 721.867188 171.019531 721.730469 172.660156 720.777344 172.796875 C 719.816406 172.929688 719.546875 173.613281 718.453125 174.023438 C 717.363281 174.433594 716.546875 173.746094 716.136719 173.886719 C 715.726562 174.023438 707.539062 174.976562 707.539062 174.976562 L 700.578125 177.707031 C 700.578125 177.707031 698.53125 178.390625 697.574219 178.660156 C 696.621094 178.9375 696.894531 178.660156 695.800781 179.34375 C 694.710938 180.027344 694.300781 180.574219 693.210938 180.300781 C 692.121094 180.027344 692.53125 180.707031 690.890625 179.617188 C 689.25 178.527344 689.25 178.390625 688.707031 177.980469 C 688.164062 177.574219 687.617188 177.027344 687.070312 176.890625 C 686.527344 176.753906 685.707031 176.480469 685.296875 175.796875 C 684.886719 175.117188 684.34375 175.386719 683.519531 174.839844 C 682.703125 174.292969 681.199219 174.703125 680.65625 174.023438 C 680.109375 173.339844 678.609375 172.25 678.609375 172.25 C 678.609375 172.25 678.058594 171.976562 677.242188 172.25 C 676.421875 172.523438 676.152344 171.976562 675.878906 173.070312 C 675.605469 174.15625 676.421875 174.703125 676.421875 174.703125 C 676.421875 174.703125 677.105469 175.796875 676.421875 175.9375 C 675.742188 176.070312 675.199219 175.25 675.199219 176.480469 C 675.199219 177.707031 675.742188 178.660156 676.835938 178.9375 C 677.925781 179.210938 678.886719 179.34375 678.886719 179.34375 C 678.886719 179.34375 678.886719 179.617188 678.609375 180.300781 C 678.339844 180.984375 677.242188 181.261719 676.835938 181.804688 C 676.421875 182.347656 677.515625 181.804688 675.878906 182.210938 C 674.242188 182.621094 673.96875 182.757812 673.152344 182.894531 C 672.332031 183.03125 673.425781 184.261719 671.242188 183.164062 C 669.058594 182.078125 668.648438 181.804688 667.554688 180.984375 C 666.464844 180.164062 665.917969 179.34375 665.648438 178.660156 C 665.371094 177.980469 664.554688 177.164062 664.554688 177.164062 C 664.554688 177.164062 664.144531 177.300781 663.191406 176.613281 C 662.234375 175.9375 660.320312 173.886719 660.320312 173.886719 C 660.320312 173.886719 659.914062 173.203125 659.234375 173.613281 C 658.550781 174.023438 658.136719 175.386719 656.773438 175.25 C 655.410156 175.117188 656.363281 174.566406 654.179688 174.839844 C 652 175.117188 650.769531 174.976562 649.269531 175.117188 C 647.765625 175.25 647.085938 175.386719 646.269531 175.117188 C 645.449219 174.839844 645.3125 173.613281 644.359375 174.433594 C 643.398438 175.25 642.722656 175.796875 641.765625 175.527344 C 640.808594 175.25 641.082031 175.25 639.851562 174.703125 C 638.625 174.15625 637.261719 173.339844 637.261719 173.339844 C 637.261719 173.339844 637.398438 174.433594 636.71875 174.839844 C 636.03125 175.25 634.53125 174.433594 633.4375 174.976562 C 632.347656 175.527344 631.667969 175.527344 631.667969 175.527344 C 631.667969 175.527344 630.984375 172.796875 630.304688 173.070312 C 629.621094 173.339844 630.167969 172.929688 629.070312 173.613281 C 627.984375 174.292969 628.117188 175.117188 627.296875 175.9375 C 626.476562 176.753906 625.796875 177.027344 625.117188 177.300781 C 624.4375 177.574219 624.027344 177.84375 623.484375 177.164062 C 622.933594 176.480469 621.570312 175.117188 621.027344 174.566406 C 620.480469 174.023438 620.339844 173.339844 619.660156 173.746094 C 618.972656 174.15625 616.25 174.292969 616.25 174.292969 L 612.425781 173.746094 C 612.425781 173.746094 611.742188 175.25 611.605469 175.9375 C 611.472656 176.613281 612.835938 176.480469 611.472656 176.613281 C 610.109375 176.753906 609.96875 176.480469 609.152344 177.164062 C 608.335938 177.84375 609.152344 178.253906 608.46875 178.390625 C 607.789062 178.527344 606.558594 177.84375 605.738281 177.164062 C 604.921875 176.480469 604.511719 176.070312 603.417969 175.9375 C 602.332031 175.796875 599.597656 174.15625 599.597656 174.15625 L 598.640625 176.613281 C 598.640625 176.613281 598.503906 179.890625 597.6875 180.300781 C 596.871094 180.707031 595.914062 181.53125 595.914062 181.53125 L 593.734375 180.984375 C 592.367188 182.347656 591.546875 183.851562 591.003906 184.535156 C 590.453125 185.214844 589.910156 185.214844 589.910156 185.898438 C 589.910156 186.582031 590.183594 186.171875 589.910156 188.21875 C 589.640625 190.265625 589.230469 190.535156 589.230469 190.945312 C 589.230469 191.359375 588.410156 194.089844 588.410156 194.089844 L 587.179688 194.5 C 587.179688 194.5 586.230469 193.8125 585.816406 194.359375 C 585.40625 194.90625 585.132812 196.273438 585.132812 196.273438 C 585.132812 196.273438 586.636719 196.546875 586.90625 197.226562 C 587.179688 197.910156 587.59375 197.636719 587.453125 198.589844 C 587.320312 199.550781 586.90625 200.097656 586.769531 200.914062 C 586.636719 201.734375 586.496094 202.414062 586.230469 203.097656 C 585.953125 203.777344 585.816406 206.511719 585.816406 207.738281 C 585.816406 208.96875 586.367188 211.148438 586.367188 211.148438 C 586.367188 211.148438 586.90625 212.652344 586.90625 213.199219 C 586.90625 213.742188 588.410156 216.0625 588.410156 216.0625 L 588.683594 217.703125 L 586.769531 218.933594 C 586.769531 218.933594 586.90625 218.113281 585.816406 218.386719 C 584.726562 218.65625 584.726562 218.113281 584.175781 220.433594 C 583.632812 222.75 583.085938 225.484375 583.085938 225.484375 C 583.085938 225.484375 583.085938 225.890625 583.085938 226.984375 C 583.085938 228.078125 583.902344 228.757812 584.175781 229.445312 C 584.453125 230.121094 585.132812 231.082031 584.453125 231.625 C 583.769531 232.175781 584.316406 231.765625 583.226562 233.128906 C 582.132812 234.492188 581.453125 234.222656 580.769531 235.039062 C 580.085938 235.859375 580.632812 236.945312 579.949219 237.359375 C 579.269531 237.769531 578.449219 236.8125 577.628906 237.359375 C 576.808594 237.90625 577.085938 239.136719 577.085938 239.136719 C 574.496094 239.546875 573.808594 238.726562 573.535156 238.042969 C 573.261719 237.359375 572.171875 236.539062 572.171875 236.539062 C 571.214844 237.632812 570.9375 238.726562 570.9375 238.726562 L 569.441406 241.042969 L 566.847656 241.59375 C 566.847656 241.59375 566.03125 241.726562 565.761719 242.273438 C 565.484375 242.824219 566.164062 243.230469 566.03125 244.050781 C 565.894531 244.867188 564.667969 246.230469 564.667969 246.230469 L 563.570312 246.507812 L 565.894531 248.417969 C 565.894531 248.417969 566.574219 248.554688 566.304688 249.234375 C 566.03125 249.917969 564.667969 251.554688 564.667969 251.554688 C 564.121094 252.375 564.53125 252.917969 564.800781 253.46875 C 565.074219 254.011719 566.164062 253.738281 565.210938 254.554688 C 564.253906 255.378906 564.386719 254.285156 564.253906 255.378906 C 564.121094 256.46875 565.074219 257.5625 565.074219 257.5625 L 566.984375 257.285156 C 567.804688 256.746094 568.757812 257.699219 568.757812 257.699219 C 568.757812 257.699219 570.261719 258.242188 570.535156 259.199219 C 570.804688 260.15625 573.261719 258.652344 570.9375 260.695312 C 568.621094 262.746094 568.898438 262.746094 568.078125 262.746094 C 567.261719 262.746094 568.214844 261.519531 567.261719 262.746094 C 566.304688 263.976562 565.210938 264.65625 565.210938 264.65625 L 562.070312 267.117188 L 560.984375 266.707031 L 559.890625 267.933594 L 558.9375 268.34375 L 557.707031 267.527344 L 557.707031 269.574219 C 557.707031 269.574219 557.980469 270.664062 557.570312 271.347656 C 557.160156 272.03125 556.75 272.578125 555.65625 272.847656 C 554.570312 273.121094 551.835938 272.714844 551.835938 272.714844 C 551.835938 272.714844 551.019531 272.988281 550.472656 273.941406 C 549.925781 274.894531 548.699219 275.582031 548.152344 275.855469 C 547.609375 276.121094 548.019531 278.035156 548.019531 278.035156 L 549.792969 278.855469 L 551.292969 279.265625 C 551.292969 279.265625 551.425781 280.359375 551.15625 281.316406 C 550.882812 282.265625 550.882812 283.355469 550.882812 283.355469 L 552.519531 283.355469 C 552.519531 283.355469 554.292969 283.492188 554.292969 283.90625 C 554.292969 284.3125 553.613281 285.40625 553.34375 286.089844 C 553.066406 286.773438 553.066406 286.773438 553.066406 286.773438 C 553.066406 286.773438 554.570312 287.320312 554.019531 288.140625 C 553.476562 288.957031 551.976562 290.050781 551.976562 290.050781 L 551.019531 290.867188 C 551.019531 290.867188 551.019531 291.683594 550.472656 291.683594 C 549.925781 291.683594 548.425781 290.320312 547.746094 291.414062 C 547.0625 292.503906 546.378906 292.777344 546.246094 293.597656 C 546.109375 294.417969 546.378906 296.328125 546.378906 296.328125 C 546.378906 296.328125 547.609375 296.464844 547.335938 297.824219 C 547.0625 299.195312 547.609375 300.691406 546.925781 301.511719 C 546.246094 302.328125 544.0625 303.289062 544.0625 303.289062 C 544.0625 303.289062 542.421875 303.148438 542.011719 304.246094 C 541.605469 305.339844 541.871094 306.019531 541.605469 306.976562 C 541.328125 307.929688 541.46875 308.613281 540.648438 309.296875 C 539.832031 309.976562 540.101562 309.84375 539.011719 310.117188 C 537.917969 310.386719 534.503906 308.339844 533.691406 308.066406 C 532.871094 307.792969 531.917969 307.109375 531.917969 307.109375 C 531.917969 307.109375 527.683594 310.117188 527.140625 310.527344 C 526.59375 310.933594 523.59375 312.164062 523.59375 312.164062 C 523.59375 312.164062 523.316406 312.433594 522.5 312.023438 C 521.679688 311.613281 520.859375 310.933594 520.859375 310.933594 L 518.542969 310.660156 C 518.542969 310.660156 517.859375 311.34375 516.222656 311.476562 C 514.582031 311.613281 514.855469 311.886719 513.628906 312.023438 C 512.402344 312.164062 511.175781 312.574219 511.175781 312.574219 C 511.175781 312.574219 509.949219 312.707031 508.578125 313.527344 C 507.214844 314.347656 506.121094 315.980469 506.121094 315.980469 C 505.578125 316.9375 503.125 319.128906 502.03125 319.535156 C 500.941406 319.945312 498.484375 321.304688 498.484375 321.304688 C 496.980469 321.851562 496.027344 321.851562 495.480469 320.898438 C 494.933594 319.945312 493.976562 318.164062 493.976562 318.164062 C 493.976562 318.164062 493.976562 317.210938 493.023438 317.347656 C 492.070312 317.488281 490.84375 316.800781 489.613281 317.488281 C 488.382812 318.164062 488.929688 319.535156 487.425781 318.304688 C 485.929688 317.078125 483.882812 316.257812 483.882812 316.257812 C 483.882812 316.257812 483.339844 315.980469 482.519531 315.300781 C 481.703125 314.621094 480.878906 313.660156 480.195312 313.660156 C 479.515625 313.660156 476.648438 314.210938 476.648438 314.210938 C 476.648438 314.210938 474.601562 313.9375 473.917969 313.800781 C 473.238281 313.660156 472.828125 312.84375 472.417969 312.433594 C 472.011719 312.023438 471.738281 311.34375 471.050781 311.613281 C 470.371094 311.886719 469.144531 312.84375 468.328125 312.707031 C 467.503906 312.574219 466.550781 311.070312 466.550781 311.070312 C 466.550781 311.070312 468.191406 310.386719 469.144531 308.890625 C 470.097656 307.386719 470.234375 306.429688 470.234375 306.429688 C 470.234375 306.429688 469.011719 306.566406 467.78125 306.15625 C 466.550781 305.746094 466.28125 305.472656 465.183594 305.203125 C 464.09375 304.929688 464.09375 305.066406 463.414062 304.929688 C 462.730469 304.792969 462.867188 302.605469 461.777344 304.105469 C 460.683594 305.613281 461.230469 305.339844 460.136719 305.882812 C 459.046875 306.429688 459.457031 306.289062 458.085938 306.15625 C 456.722656 306.019531 455.636719 305.339844 455.09375 305.339844 C 454.542969 305.339844 447.722656 305.746094 447.722656 305.746094 L 443.761719 305.339844 C 442.535156 306.019531 440.898438 307.386719 440.898438 307.386719 C 440.898438 307.386719 437.894531 308.339844 436.941406 308.480469 C 435.984375 308.613281 436.390625 308.339844 435.167969 309.160156 C 433.9375 309.976562 433.121094 310.527344 432.164062 311.203125 C 431.210938 311.886719 431.070312 311.613281 431.34375 312.980469 C 431.617188 314.347656 432.988281 314.890625 432.710938 315.4375 C 432.433594 315.980469 431.890625 316.53125 430.800781 317.757812 C 429.707031 318.988281 430.117188 318.03125 429.433594 319.945312 C 428.75 321.851562 429.433594 321.582031 429.160156 323.082031 C 428.886719 324.582031 427.390625 324.582031 426.707031 325.402344 C 426.027344 326.222656 425.066406 326.085938 423.429688 326.085938 C 421.792969 326.085938 421.792969 324.449219 420.566406 325.402344 C 419.339844 326.355469 418.65625 325.128906 417.972656 326.355469 C 417.289062 327.585938 416.878906 330.039062 416.0625 330.453125 C 415.242188 330.859375 415.921875 330.722656 413.878906 331.410156 C 411.835938 332.09375 410.878906 332.09375 410.878906 332.09375 C 410.878906 332.09375 408.695312 331 408.144531 330.859375 C 407.601562 330.722656 407.191406 330.179688 406.238281 330.179688 C 405.285156 330.179688 405.828125 329.089844 404.738281 330.039062 C 403.648438 331 403.511719 332.226562 402.414062 332.910156 C 401.324219 333.59375 401.183594 333.046875 400.503906 333.320312 C 399.820312 333.59375 399.144531 333.867188 398.324219 332.910156 C 397.503906 331.953125 398.183594 330.589844 397.503906 330.859375 C 396.820312 331.132812 396.410156 331.132812 394.226562 331.546875 C 392.042969 331.953125 392.59375 332.496094 391.367188 331.679688 C 390.132812 330.859375 388.773438 330.039062 387.675781 329.632812 C 386.585938 329.222656 386.855469 329.089844 385.902344 328.679688 C 384.949219 328.269531 382.492188 329.632812 381.949219 329.90625 C 381.402344 330.179688 378.398438 330.722656 378.398438 330.722656 C 378.398438 330.722656 378.398438 330.589844 377.035156 330.589844 C 375.671875 330.589844 373.214844 330.859375 373.214844 330.859375 C 373.214844 330.859375 371.984375 332.226562 370.894531 332.09375 C 369.800781 331.953125 369.667969 331.953125 369.117188 333.046875 C 368.574219 334.136719 368.984375 333.730469 367.617188 334.820312 C 366.253906 335.910156 366.253906 335.910156 366.253906 335.910156 C 366.253906 335.910156 366.390625 336.867188 365.570312 337.144531 C 364.75 337.414062 363.796875 336.867188 363.117188 336.734375 C 362.433594 336.59375 362.433594 336.183594 361.75 337.003906 C 361.070312 337.824219 360.386719 338.914062 359.566406 338.914062 C 358.75 338.914062 354.65625 338.914062 354.65625 338.914062 L 353.15625 338.78125 C 353.15625 338.78125 352.335938 339.050781 351.378906 338.097656 C 350.421875 337.144531 350.695312 337.960938 349.0625 336.324219 C 347.421875 334.683594 347.289062 334.820312 347.015625 334 C 346.742188 333.183594 346.742188 333.183594 346.742188 333.183594 C 346.742188 333.183594 345.238281 332.910156 343.328125 332.636719 C 341.417969 332.363281 341.285156 332.910156 340.738281 332.226562 C 340.191406 331.546875 340.191406 330.722656 340.050781 330.039062 C 339.917969 329.363281 339.785156 329.089844 339.371094 328.132812 C 338.960938 327.171875 338.6875 326.628906 338.6875 326.628906 L 337.324219 325.402344 L 336.914062 323.902344 L 336.234375 323.21875 C 336.234375 323.21875 334.871094 323.082031 333.503906 322.945312 C 332.136719 322.8125 332.277344 323.082031 331.316406 322.535156 C 330.363281 321.992188 329.953125 321.992188 330.09375 321.171875 C 330.230469 320.351562 331.183594 319.667969 330.5 319.667969 C 329.816406 319.667969 329.410156 319.945312 328.183594 319.128906 C 326.953125 318.304688 327.359375 319.398438 326.953125 318.304688 C 326.542969 317.210938 326.40625 314.757812 326.40625 314.757812 L 325.996094 313.9375 L 323.128906 312.84375 L 320.675781 312.574219 C 320.675781 312.574219 319.722656 312.433594 319.585938 311.753906 C 319.449219 311.070312 319.859375 309.976562 319.859375 309.976562 C 319.859375 309.976562 318.628906 310.527344 317.398438 309.84375 C 316.171875 309.160156 315.492188 308.480469 314.671875 307.792969 C 313.851562 307.109375 311.945312 305.203125 311.800781 304.386719 C 311.671875 303.566406 311.535156 302.738281 311.671875 302.328125 C 311.800781 301.921875 313.175781 296.464844 313.175781 296.464844 L 311.800781 296.054688 C 311.800781 296.054688 308.941406 295.78125 308.667969 295.234375 C 308.394531 294.691406 308.121094 294.550781 307.988281 293.871094 C 307.847656 293.1875 307.304688 291.277344 307.304688 291.277344 L 306.761719 289.09375 " fill-opacity="1" fill-rule="nonzero"/></g><path fill="#a6a6a6" d="M 389.042969 258.652344 C 389.042969 258.652344 388.363281 256.335938 388.222656 255.78125 C 388.085938 255.238281 388.628906 251.144531 388.628906 251.144531 L 389.453125 249.234375 L 390.273438 249.097656 L 391.089844 249.78125 L 392.316406 251.144531 L 392.863281 252.507812 L 393.273438 254.011719 L 392.863281 259.0625 L 392.726562 261.246094 L 392.863281 262.746094 L 392.996094 264.523438 L 393.273438 266.160156 L 392.726562 267.25 L 391.636719 266.980469 L 390.273438 266.433594 C 390.273438 266.433594 389.316406 265.753906 389.042969 264.933594 C 388.773438 264.113281 388.90625 263.296875 388.90625 263.296875 L 389.042969 258.652344 " fill-opacity="1" fill-rule="nonzero"/><path fill="#a6a6a6" d="M 394.777344 263.566406 L 396.683594 263.566406 L 398.050781 264.113281 L 399.277344 265.203125 L 400.640625 265.613281 L 402.277344 266.570312 L 403.101562 267.664062 L 403.917969 268.617188 L 401.734375 268.890625 L 400.640625 268.617188 L 399.003906 268.890625 L 397.097656 268.207031 C 397.097656 268.207031 396.277344 267.933594 396 267.527344 C 395.730469 267.117188 395.589844 267.25 395.1875 266.707031 C 394.777344 266.160156 394.777344 264.65625 394.777344 264.65625 L 394.777344 263.566406 " fill-opacity="1" fill-rule="nonzero"/><path fill="#a6a6a6" d="M 569.441406 127.066406 L 570.9375 130.207031 L 571.214844 131.703125 C 571.214844 131.703125 571.214844 133.484375 570.394531 133.621094 C 569.574219 133.753906 569.03125 134.574219 568.214844 134.304688 C 567.394531 134.027344 565.894531 134.304688 565.894531 134.304688 C 565.894531 134.304688 565.347656 133.074219 565.761719 132.253906 C 566.164062 131.433594 569.441406 127.066406 569.441406 127.066406 " fill-opacity="1" fill-rule="nonzero"/><g clip-path="url(#dd8ea4a060)"><path fill="#a6a6a6" d="M 640.945312 43.527344 C 640.671875 43.253906 642.035156 39.980469 642.035156 39.980469 L 642.992188 39.296875 L 644.628906 38.886719 L 645.996094 37.109375 L 647.085938 36.429688 L 647.496094 37.382812 L 648.175781 39.707031 L 647.359375 41.34375 L 646.132812 40.796875 L 645.859375 41.886719 C 645.859375 41.886719 644.902344 42.433594 644.222656 42.707031 C 643.539062 42.984375 642.585938 43.253906 642.585938 43.253906 L 641.355469 44.210938 C 640.535156 44.621094 640.945312 43.527344 640.945312 43.527344 " fill-opacity="1" fill-rule="nonzero"/></g><g clip-path="url(#63e728b7fe)"><path fill="#a6a6a6" d="M 650.089844 39.160156 L 653.226562 37.382812 L 655.957031 36.5625 L 657.59375 36.289062 C 657.59375 36.289062 658.824219 36.289062 658.824219 36.699219 C 658.824219 37.109375 659.097656 39.023438 659.097656 39.023438 L 658.824219 41.203125 L 659.097656 42.300781 C 659.097656 42.300781 660.460938 42.570312 660.050781 42.984375 C 659.640625 43.390625 657.457031 45.164062 657.457031 45.164062 C 657.457031 45.164062 656.773438 44.757812 655.820312 44.757812 C 654.863281 44.757812 654.726562 44.210938 654.046875 44.757812 C 653.363281 45.300781 651.730469 47.484375 651.730469 47.484375 C 650.226562 47.757812 649.269531 47.078125 649.132812 46.257812 C 648.996094 45.4375 649.542969 43.527344 649.542969 43.527344 L 649.679688 42.023438 L 650.089844 39.160156 " fill-opacity="1" fill-rule="nonzero"/></g><path fill="#a6a6a6" d="M 659.371094 50.488281 C 659.371094 50.078125 660.320312 49.261719 660.320312 49.261719 L 661.6875 49.394531 L 662.78125 50.625 L 661.824219 52.125 L 660.1875 52.398438 L 659.097656 51.445312 L 659.371094 50.488281 " fill-opacity="1" fill-rule="nonzero"/><path fill="#a6a6a6" d="M 665.648438 64.820312 L 667.554688 63.734375 L 668.917969 63.59375 L 669.601562 64.820312 L 670.285156 66.324219 L 669.464844 68.644531 C 669.464844 68.644531 668.78125 70.007812 667.691406 69.734375 C 666.601562 69.464844 665.238281 69.054688 665.238281 69.054688 L 663.460938 68.644531 C 663.460938 68.644531 662.234375 68.644531 662.234375 67.960938 C 662.234375 67.277344 664.554688 66.734375 664.554688 66.734375 L 665.785156 66.597656 L 666.738281 66.046875 L 665.648438 64.820312 " fill-opacity="1" fill-rule="nonzero"/><path fill="#a6a6a6" d="M 710.8125 159.824219 C 711.234375 159.726562 713.40625 159.964844 713.40625 159.964844 L 713.679688 159.144531 L 714.636719 159.144531 L 715.726562 160.644531 L 717.089844 160.921875 L 718.726562 161.054688 L 719.136719 162.011719 C 719.136719 162.011719 719.136719 162.832031 718.316406 162.832031 C 717.5 162.832031 716.679688 162.695312 716 162.558594 C 715.316406 162.421875 713.679688 162.148438 713.679688 162.148438 L 712.3125 161.871094 L 710.949219 161.195312 C 710.949219 161.195312 707.949219 160.507812 710.8125 159.824219 " fill-opacity="1" fill-rule="nonzero"/><path fill="#a6a6a6" d="M 722.960938 167.882812 L 724.324219 167.609375 L 725.550781 168.5625 L 725.824219 170.472656 L 724.1875 172.25 L 722.960938 171.566406 L 722.414062 169.792969 L 722.140625 168.699219 L 722.960938 167.882812 " fill-opacity="1" fill-rule="nonzero"/><path fill="#a6a6a6" d="M 679.699219 179.617188 C 679.835938 178.660156 680.65625 178.390625 680.65625 178.390625 C 680.65625 178.390625 681.609375 177.84375 682.019531 178.117188 C 682.425781 178.390625 684.203125 179.480469 684.203125 179.480469 L 686.117188 180.707031 L 688.296875 182.078125 C 688.296875 182.078125 688.707031 183.03125 688.023438 183.03125 C 687.347656 183.03125 685.839844 183.164062 685.160156 182.894531 C 684.476562 182.621094 681.882812 183.851562 680.246094 183.4375 C 678.609375 183.03125 678.886719 183.984375 678.609375 183.03125 C 678.339844 182.078125 678.609375 180.300781 678.609375 180.300781 L 679.699219 179.617188 " fill-opacity="1" fill-rule="nonzero"/><path fill="#a6a6a6" d="M 151.632812 110.824219 C 151.632812 110.824219 150.265625 111.914062 149.449219 111.914062 C 148.628906 111.914062 146.996094 111.914062 146.996094 111.914062 L 146.996094 108.640625 L 149.179688 107.546875 L 151.632812 108.910156 L 151.632812 110.824219 " fill-opacity="1" fill-rule="nonzero"/></svg>