<svg xmlns="http://www.w3.org/2000/svg" xmlns:xlink="http://www.w3.org/1999/xlink" width="500" zoomAndPan="magnify" viewBox="0 0 375 374.999991" height="500" preserveAspectRatio="xMidYMid meet" version="1.0"><path fill="#a6a6a6" d="M 4.320312 51.792969 C 4.320312 51.792969 3.289062 52.476562 2.265625 51.445312 C 1.238281 50.414062 0.550781 49.039062 0.550781 49.039062 L 1.582031 46.980469 L 4.320312 46.640625 L 6.382812 48.011719 L 8.4375 48.355469 L 9.46875 45.953125 C 11.183594 45.613281 12.554688 45.265625 12.554688 45.265625 L 14.269531 47.671875 L 14.957031 50.070312 C 15.984375 51.792969 14.957031 53.84375 14.957031 53.84375 C 13.238281 54.875 11.183594 54.1875 11.183594 54.1875 L 8.78125 54.535156 L 6.382812 57.625 C 3.980469 56.59375 3.289062 54.535156 3.289062 54.535156 L 4.320312 51.792969 " fill-opacity="1" fill-rule="nonzero"/><path fill="#a6a6a6" d="M 3.289062 52.476562 C 0.890625 52.476562 0.890625 52.476562 0.890625 52.476562 L 0.550781 49.039062 " fill-opacity="1" fill-rule="nonzero"/><path fill="#a6a6a6" d="M 10.671875 56.765625 L 11.183594 59.339844 L 11.523438 62.085938 L 9.984375 63.460938 C 9.984375 63.460938 8.78125 63.289062 8.269531 62.429688 C 7.753906 61.570312 8.097656 59.855469 8.097656 59.855469 L 9.46875 58.480469 L 10.671875 56.765625 " fill-opacity="1" fill-rule="nonzero"/><path fill="#a6a6a6" d="M 30.222656 40.117188 C 30.222656 40.117188 31.078125 37.542969 30.90625 37.027344 C 30.734375 36.511719 30.050781 35.652344 30.050781 35.652344 L 30.222656 33.421875 L 31.25 31.363281 C 32.113281 31.015625 33.824219 32.222656 33.824219 32.222656 L 34.511719 33.078125 L 36.746094 31.363281 L 37.769531 33.253906 L 38.453125 34.96875 L 38.113281 37.542969 L 38.96875 39.949219 L 41.03125 41.316406 L 43.085938 42.175781 L 44.804688 43.207031 L 46.6875 42.859375 L 48.402344 44.75 C 49.777344 45.78125 52.695312 45.78125 52.695312 45.78125 L 55.265625 46.121094 C 56.296875 46.980469 59.382812 44.40625 59.382812 44.40625 L 60.753906 43.375 L 62.300781 44.574219 L 63.15625 46.46875 L 64.871094 47.496094 C 64.871094 47.496094 65.898438 49.382812 65.730469 50.070312 C 65.554688 50.761719 66.070312 52.992188 66.070312 52.992188 L 66.585938 55.390625 L 67.960938 57.972656 C 69.164062 58.3125 70.878906 57.972656 70.878906 57.972656 L 72.421875 59.339844 L 74.304688 56.25 C 75.679688 57.625 77.050781 58.824219 77.050781 58.824219 L 79.28125 57.796875 C 79.28125 57.796875 80.652344 57.109375 81.167969 58.140625 C 81.683594 59.171875 83.394531 60.539062 82.367188 61.230469 C 81.34375 61.914062 79.96875 63.117188 78.765625 63.804688 C 77.566406 64.488281 77.394531 65.34375 78.082031 65.691406 C 78.765625 66.035156 81.167969 67.0625 81.167969 67.0625 C 81.167969 67.0625 82.542969 67.75 82.027344 68.609375 C 81.511719 69.464844 80.828125 70.5 80.484375 71.355469 C 80.136719 72.210938 81.167969 72.382812 81.167969 73.414062 C 81.167969 74.445312 80.652344 75.644531 79.96875 76.503906 C 79.28125 77.363281 79.109375 78.394531 78.082031 78.5625 C 77.050781 78.730469 75.503906 77.878906 74.988281 78.21875 C 74.476562 78.5625 74.820312 78.5625 74.476562 79.9375 C 74.132812 81.316406 74.132812 82.855469 73.964844 83.542969 C 73.792969 84.226562 74.304688 84.566406 74.988281 85.597656 C 75.679688 86.632812 78.59375 88.863281 78.59375 88.863281 C 78.59375 88.863281 80.136719 90.238281 80.484375 91.09375 C 80.828125 91.953125 81.34375 93.84375 81.34375 93.84375 L 82.542969 95.042969 L 84.597656 93.5 L 87.34375 92.292969 L 88.027344 91.4375 L 88.027344 89.378906 L 88.199219 86.804688 L 88.886719 85.089844 L 90.601562 84.226562 L 93.6875 84.058594 L 94.886719 82.171875 L 95.578125 81.140625 L 97.808594 80.28125 L 101.234375 80.625 L 102.949219 80.453125 L 105.351562 78.046875 L 107.066406 76.851562 C 107.066406 76.851562 108.613281 77.703125 108.78125 78.394531 C 108.953125 79.078125 110.328125 80.792969 110.328125 80.792969 C 110.328125 80.792969 112.382812 80.625 112.214844 81.484375 C 112.042969 82.339844 111.527344 84.398438 111.527344 85.257812 C 111.527344 86.113281 111.867188 88.863281 112.214844 87.664062 C 112.558594 86.457031 115.816406 85.941406 115.816406 85.941406 L 118.046875 86.113281 L 120.101562 88.179688 L 121.816406 87.148438 L 124.046875 84.058594 L 126.28125 82 L 127.308594 80.453125 L 127.308594 74.960938 L 129.882812 70.839844 L 131.941406 67.917969 L 134.859375 64.320312 L 136.226562 62.429688 L 135.542969 60.199219 L 138.285156 60.023438 L 140.691406 61.054688 L 143.601562 61.230469 C 143.601562 61.230469 145.492188 61.570312 146.691406 61.914062 C 147.894531 62.261719 149.949219 63.460938 149.949219 63.460938 C 149.949219 63.460938 151.496094 65.34375 151.496094 66.035156 C 151.496094 66.71875 153.039062 69.808594 153.210938 70.671875 C 153.378906 71.523438 154.921875 73.757812 154.921875 74.445312 C 154.921875 75.128906 158.867188 80.625 159.726562 81.316406 C 160.589844 82 162.472656 84.058594 162.472656 84.058594 L 164.699219 85.773438 C 164.699219 85.773438 167.277344 88.003906 167.621094 88.863281 C 167.960938 89.71875 169.847656 91.953125 169.847656 91.953125 L 173.625 94.699219 C 173.625 94.699219 177.226562 97.441406 178.082031 97.785156 C 178.941406 98.132812 183.394531 100.535156 183.394531 100.535156 L 186.488281 102.761719 C 186.488281 102.761719 188.542969 104.652344 189.058594 105.511719 C 189.574219 106.367188 191.628906 109.117188 191.976562 109.804688 C 192.320312 110.492188 200.039062 123.707031 200.039062 124.738281 C 200.039062 125.765625 203.8125 130.402344 203.8125 131.597656 C 203.8125 132.800781 206.386719 137.09375 206.386719 137.09375 L 208.441406 140.699219 L 210.496094 143.957031 C 210.496094 143.957031 210.671875 145.675781 210.328125 146.878906 C 209.988281 148.082031 210.328125 148.59375 210.15625 150.308594 C 209.988281 152.023438 210.671875 151.855469 210.84375 153.402344 C 211.011719 154.945312 211.875 155.972656 211.875 157.003906 C 211.875 158.035156 213.929688 157.175781 212.902344 159.234375 C 211.875 161.292969 211.1875 160.777344 211.011719 161.808594 C 210.84375 162.839844 210.84375 161.984375 211.359375 164.558594 C 211.875 167.132812 212.386719 167.816406 212.902344 168.671875 C 213.414062 169.535156 213.929688 170.5625 213.414062 172.109375 C 212.902344 173.652344 213.074219 173.824219 212.730469 174.679688 C 212.386719 175.542969 210.15625 177.089844 209.640625 178.289062 C 209.125 179.484375 207.925781 179.484375 207.238281 181.722656 C 206.554688 183.953125 207.753906 185.152344 207.585938 186.695312 C 207.410156 188.242188 209.125 189.449219 208.785156 190.644531 C 208.441406 191.84375 207.925781 192.703125 206.726562 194.078125 C 205.527344 195.449219 205.695312 194.421875 205.355469 196.996094 C 205.011719 199.570312 205.1875 200.773438 204.84375 202.492188 C 204.496094 204.207031 204.84375 204.207031 205.1875 206.265625 C 205.527344 208.324219 207.070312 211.929688 207.070312 211.929688 C 207.070312 211.929688 208.609375 213.992188 209.640625 214.675781 C 210.671875 215.359375 211.875 216.390625 211.875 217.421875 C 211.875 218.457031 210.496094 223.773438 210.496094 223.773438 C 210.496094 223.773438 209.296875 227.378906 209.125 228.234375 C 208.957031 229.09375 208.957031 232.355469 209.125 233.382812 C 209.296875 234.410156 210.328125 234.242188 210.15625 236.820312 C 209.988281 239.394531 209.125 244.882812 209.125 244.882812 C 209.125 244.882812 210.15625 244.882812 209.640625 248.148438 C 209.125 251.40625 209.125 253.46875 209.125 254.15625 C 209.125 254.835938 210.671875 257.925781 211.1875 258.789062 C 211.703125 259.648438 217.535156 265.828125 217.535156 265.828125 L 221.992188 268.910156 L 224.046875 270.117188 L 227.484375 271.316406 L 230.402344 272.863281 C 230.402344 272.863281 231.773438 274.917969 231.941406 275.78125 C 232.113281 276.632812 232.285156 277.324219 231.601562 278.527344 C 230.917969 279.726562 231.429688 281.269531 231.429688 281.269531 L 233.484375 282.992188 C 233.484375 282.992188 234.339844 283.675781 235.542969 285.050781 C 236.742188 286.417969 238.117188 288.132812 238.117188 288.132812 L 240.34375 291.402344 L 240.34375 293.285156 C 240.34375 293.285156 239.660156 293.800781 239.488281 295.003906 C 239.320312 296.207031 241.550781 298.09375 241.890625 298.949219 C 242.234375 299.808594 244.636719 302.730469 244.636719 302.730469 C 244.636719 302.730469 246.351562 304.441406 246.691406 305.472656 C 247.035156 306.503906 248.066406 309.078125 248.066406 310.109375 C 248.066406 311.140625 248.066406 310.792969 248.066406 313.03125 C 248.066406 315.257812 248.410156 315.773438 249.609375 316.28125 C 250.808594 316.800781 252.183594 318.171875 253.039062 319.035156 C 253.894531 319.894531 255.269531 323.667969 255.269531 323.667969 C 255.269531 323.667969 255.269531 325.898438 255.609375 327.273438 C 255.957031 328.648438 257.328125 330.1875 257.671875 331.050781 C 258.019531 331.90625 257.84375 334.480469 258.019531 335.511719 C 258.1875 336.542969 258.527344 336.714844 258.871094 337.742188 C 259.21875 338.773438 258.019531 343.753906 258.019531 343.753906 C 258.019531 343.753906 258.359375 344.609375 256.984375 344.78125 C 255.609375 344.953125 255.785156 345.296875 253.039062 345.296875 C 250.292969 345.296875 250.292969 346.148438 248.753906 344.953125 C 247.207031 343.753906 247.207031 344.609375 247.207031 343.0625 C 247.207031 341.515625 247.894531 338.949219 247.894531 338.949219 C 247.894531 338.949219 247.894531 338.601562 246.175781 338.601562 C 244.460938 338.601562 244.636719 338.773438 243.605469 339.457031 C 242.574219 340.140625 240.519531 340.140625 239.660156 340.140625 C 238.804688 340.140625 238.117188 339.972656 237.085938 339.972656 C 236.058594 339.972656 233.996094 339.457031 233.996094 339.457031 L 230.742188 336.367188 L 227.652344 337.058594 C 227.652344 337.058594 227.308594 337.574219 226.109375 337.742188 C 224.90625 337.914062 223.707031 338.601562 223.707031 338.601562 C 223.707031 338.601562 223.023438 338.773438 222.507812 339.972656 C 221.992188 341.175781 221.652344 343.921875 220.792969 343.921875 C 219.9375 343.921875 220.453125 345.296875 219.246094 345.121094 C 218.046875 344.953125 218.046875 344.953125 216.328125 344.953125 C 214.621094 344.953125 215.128906 345.121094 214.445312 345.804688 C 213.761719 346.496094 214.621094 347.007812 213.589844 347.351562 C 212.558594 347.695312 210.15625 346.328125 210.15625 346.328125 C 210.15625 346.328125 206.554688 335.511719 206.042969 334.652344 C 205.527344 333.792969 205.011719 332.769531 203.980469 332.425781 C 202.953125 332.078125 200.378906 331.050781 200.378906 331.050781 L 197.976562 329.5 L 195.0625 327.957031 C 195.0625 327.957031 193.003906 327.097656 192.144531 326.414062 C 191.289062 325.726562 189.742188 325.042969 189.742188 325.042969 C 189.742188 325.042969 186.828125 320.925781 186.144531 321.09375 C 185.460938 321.265625 180.824219 321.4375 180.824219 321.4375 L 179.964844 320.410156 C 179.964844 320.410156 178.597656 318.519531 177.566406 317.65625 C 176.539062 316.800781 176.710938 316.972656 175.164062 315.597656 C 173.625 314.230469 173.960938 313.714844 172.589844 313.882812 C 171.222656 314.054688 170.363281 314.054688 169.164062 314.054688 C 167.960938 314.054688 168.308594 315.597656 166.757812 313.882812 C 165.214844 312.167969 164.527344 311.820312 163.5 310.449219 C 162.472656 309.078125 162.472656 309.078125 161.273438 307.535156 C 160.074219 305.988281 153.722656 299.632812 153.722656 299.632812 C 153.722656 299.632812 150.640625 297.578125 149.09375 297.578125 C 147.546875 297.578125 147.722656 297.40625 145.492188 296.207031 C 143.261719 295.003906 142.40625 293.628906 140.34375 293.285156 C 138.285156 292.941406 140.175781 295.003906 136.566406 292.253906 C 132.96875 289.519531 132.796875 289.519531 131.765625 288.480469 C 130.742188 287.449219 126.964844 283.332031 126.964844 283.332031 L 123.019531 280.242188 C 123.019531 280.242188 120.960938 278.703125 119.929688 277.496094 C 118.902344 276.296875 118.558594 276.121094 117.875 275.089844 C 117.191406 274.0625 117.015625 273.890625 116.332031 272.863281 C 115.644531 271.832031 114.960938 271.832031 114.269531 271.316406 C 113.585938 270.800781 113.246094 270.632812 111.699219 270.117188 C 110.152344 269.601562 108.613281 270.117188 107.585938 269.253906 C 106.558594 268.394531 106.726562 268.394531 104.835938 267.027344 C 102.949219 265.652344 102.433594 265.304688 100.546875 263.765625 C 98.664062 262.222656 94.375 258.101562 94.375 258.101562 C 94.375 258.101562 92.660156 256.726562 91.628906 256.042969 C 90.601562 255.359375 89.230469 254.667969 88.546875 253.292969 C 87.859375 251.921875 88.371094 251.40625 88.546875 250.203125 C 88.714844 249.003906 87.515625 248.316406 87.515625 248.316406 L 85.113281 247.117188 L 85.453125 243.339844 L 87.859375 242.308594 L 89.402344 242.824219 L 91.628906 243 L 92.660156 241.625 L 90.777344 239.734375 C 90.777344 239.734375 89.746094 238.1875 89.746094 237.503906 C 89.746094 236.820312 89.402344 235.621094 89.0625 234.929688 C 88.714844 234.242188 87.6875 232.007812 87.6875 232.007812 C 87.6875 232.007812 87.34375 232.183594 86.484375 230.636719 C 85.628906 229.09375 85.285156 227.546875 85.285156 227.546875 C 85.285156 227.546875 84.082031 226.859375 83.050781 225.828125 C 82.027344 224.804688 81.511719 224.117188 80.828125 223.085938 C 80.136719 222.054688 79.109375 219.3125 78.59375 218.28125 C 78.082031 217.25 78.25 217.25 77.226562 215.703125 C 76.1875 214.160156 76.019531 214.503906 74.820312 212.792969 C 73.617188 211.070312 74.988281 212.441406 73.617188 211.070312 C 72.25 209.695312 70.703125 208.324219 70.703125 208.324219 C 70.703125 208.324219 68.476562 206.78125 68.128906 206.097656 C 67.785156 205.40625 66.753906 203.519531 66.753906 203.519531 L 65.039062 202.316406 C 65.039062 202.316406 63.84375 202.492188 63.332031 201.460938 C 62.816406 200.433594 63.15625 199.570312 62.816406 199.058594 C 62.472656 198.539062 61.960938 197.855469 61.960938 197.855469 L 59.722656 196.480469 C 59.722656 196.480469 58.695312 196.3125 57.664062 195.285156 C 56.636719 194.25 56.464844 194.769531 56.296875 193.5625 C 56.121094 192.359375 56.804688 190.816406 56.980469 189.449219 C 57.152344 188.070312 59.039062 187.039062 59.039062 187.039062 L 60.070312 185.496094 L 58.695312 182.746094 L 56.464844 180.519531 L 54.066406 179.140625 C 54.066406 179.140625 53.550781 179.828125 52.351562 177.605469 C 51.148438 175.367188 50.289062 173.652344 50.289062 172.96875 C 50.289062 172.277344 49.601562 171.253906 49.601562 170.394531 C 49.601562 169.535156 50.632812 164.042969 50.632812 163.355469 C 50.632812 162.667969 52.523438 161.636719 52.523438 161.636719 L 53.550781 159.582031 L 53.035156 156.316406 L 52.867188 155.113281 L 50.464844 154.261719 C 50.464844 154.261719 50.632812 152.199219 50.632812 151.515625 C 50.632812 150.824219 50.980469 149.277344 50.980469 149.277344 L 50.464844 147.394531 L 49.777344 145.675781 L 50.289062 144.644531 L 50.804688 143.789062 C 50.289062 142.585938 49.601562 143.445312 49.261719 142.585938 C 48.917969 141.730469 49.433594 140.011719 49.433594 140.011719 L 48.0625 137.609375 L 46.519531 137.777344 C 46.519531 137.777344 45.148438 138.808594 44.289062 137.09375 C 43.433594 135.375 43.601562 136.582031 43.433594 135.375 C 43.261719 134.175781 39.140625 126.28125 39.140625 126.28125 C 39.140625 126.28125 37.945312 124.738281 37.769531 123.707031 C 37.601562 122.675781 39.484375 121.128906 39.484375 121.128906 L 41.546875 117.871094 L 41.714844 113.234375 L 41.03125 111.007812 L 40.167969 108.941406 L 40.515625 107.226562 C 40.515625 107.226562 40 106.367188 39.832031 105.34375 C 39.65625 104.3125 40 102.589844 40 102.589844 L 39.140625 100.535156 C 39.140625 100.535156 38.628906 99.675781 38.453125 98.816406 C 38.285156 97.957031 38.453125 94.867188 38.453125 94.867188 L 39.832031 86.804688 C 39.832031 86.804688 40.167969 77.191406 40 76.335938 C 39.832031 75.476562 39.65625 73.757812 39.3125 73.070312 C 38.96875 72.382812 38.285156 71.183594 37.769531 69.980469 C 37.253906 68.777344 32.113281 60.199219 31.597656 59.511719 C 31.078125 58.824219 29.878906 56.421875 29.878906 56.421875 C 29.878906 56.421875 29.535156 54.875 29.023438 54.019531 C 28.507812 53.160156 27.820312 51.277344 27.820312 51.277344 C 27.820312 51.277344 27.480469 48.523438 27.480469 47.839844 C 27.480469 47.15625 27.820312 44.75 27.820312 44.75 L 30.050781 40.800781 L 30.222656 40.117188 " fill-opacity="1" fill-rule="nonzero"/><path fill="#a6a6a6" d="M 31.078125 102.421875 L 34.167969 101.5625 L 35.714844 102.761719 L 36.914062 104.136719 L 38.113281 104.996094 L 37.253906 107.402344 C 37.253906 107.402344 37.253906 108.769531 36.746094 109.632812 C 36.230469 110.492188 35.714844 110.832031 35.539062 111.691406 C 35.371094 112.546875 35.371094 113.921875 35.371094 113.921875 C 35.371094 113.921875 36.054688 115.121094 35.023438 115.464844 C 33.996094 115.8125 33.136719 115.296875 33.136719 115.296875 L 31.421875 113.921875 C 31.421875 113.921875 30.222656 113.75 29.707031 113.574219 C 29.195312 113.40625 28.507812 113.574219 28.167969 112.207031 C 27.820312 110.832031 29.707031 107.058594 29.707031 107.058594 L 30.390625 104.996094 L 31.078125 102.421875 " fill-opacity="1" fill-rule="nonzero"/><path fill="#a6a6a6" d="M 48.917969 173.824219 L 49.777344 177.089844 C 49.777344 177.089844 49.777344 178.972656 48.75 178.457031 C 47.71875 177.941406 46.6875 177.257812 46.6875 176.398438 C 46.6875 175.542969 47.378906 174.335938 47.378906 174.335938 L 48.917969 173.824219 " fill-opacity="1" fill-rule="nonzero"/><path fill="#a6a6a6" d="M 250.46875 253.808594 L 252.523438 255.015625 L 253.554688 257.757812 L 254.585938 260.679688 L 254.753906 262.730469 L 253.722656 264.964844 C 253.722656 264.964844 252.867188 265.996094 251.667969 265.480469 C 250.46875 264.964844 249.441406 264.28125 248.925781 263.589844 C 248.410156 262.90625 248.066406 262.390625 248.066406 261.53125 C 248.066406 260.679688 249.09375 259.472656 249.09375 259.472656 L 250.46875 257.925781 L 250.125 255.699219 C 250.125 255.699219 249.09375 253.808594 250.46875 253.808594 " fill-opacity="1" fill-rule="nonzero"/><path fill="#a6a6a6" d="M 190.605469 88.179688 C 190.605469 88.179688 188.886719 89.546875 187.859375 89.546875 C 186.828125 89.546875 184.773438 89.546875 184.773438 89.546875 L 184.773438 85.429688 L 187.515625 84.058594 L 190.605469 85.773438 L 190.605469 88.179688 " fill-opacity="1" fill-rule="nonzero"/></svg>