<svg xmlns="http://www.w3.org/2000/svg" xmlns:xlink="http://www.w3.org/1999/xlink" width="326" zoomAndPan="magnify" viewBox="0 0 244.5 149.999998" height="200" preserveAspectRatio="xMidYMid meet" version="1.0"><defs><clipPath id="9dcf2d532c"><path d="M 0 0.152344 L 244 0.152344 L 244 149.847656 L 0 149.847656 Z M 0 0.152344 " clip-rule="nonzero"/></clipPath><clipPath id="6e5a0b80f2"><path d="M 152.152344 7.304688 L 244 7.304688 L 244 149.847656 L 152.152344 149.847656 Z M 152.152344 7.304688 " clip-rule="nonzero"/></clipPath></defs><g clip-path="url(#9dcf2d532c)"><path fill="#ffffff" d="M 0 0.152344 L 244.5 0.152344 L 244.5 157.652344 L 0 157.652344 Z M 0 0.152344 " fill-opacity="1" fill-rule="nonzero"/><path fill="#ffffff" d="M 0 0.152344 L 244.5 0.152344 L 244.5 150.152344 L 0 150.152344 Z M 0 0.152344 " fill-opacity="1" fill-rule="nonzero"/><path fill="#2a2a2a" d="M 0 0.152344 L 244.5 0.152344 L 244.5 150.152344 L 0 150.152344 Z M 0 0.152344 " fill-opacity="1" fill-rule="nonzero"/></g><path fill="#a6a6a6" d="M 1.703125 22.675781 C 1.703125 22.675781 1.296875 22.945312 0.894531 22.539062 C 0.488281 22.132812 0.21875 21.59375 0.21875 21.59375 L 0.625 20.78125 L 1.703125 20.648438 L 2.519531 21.1875 L 3.328125 21.324219 L 3.734375 20.378906 C 4.414062 20.242188 4.953125 20.105469 4.953125 20.105469 L 5.628906 21.054688 L 5.902344 22 C 6.308594 22.675781 5.902344 23.484375 5.902344 23.484375 C 5.222656 23.890625 4.414062 23.617188 4.414062 23.617188 L 3.464844 23.753906 L 2.519531 24.972656 C 1.570312 24.566406 1.296875 23.753906 1.296875 23.753906 L 1.703125 22.675781 " fill-opacity="1" fill-rule="nonzero"/><path fill="#a6a6a6" d="M 1.296875 22.945312 C 0.351562 22.945312 0.351562 22.945312 0.351562 22.945312 L 0.21875 21.59375 " fill-opacity="1" fill-rule="nonzero"/><path fill="#a6a6a6" d="M 4.210938 24.632812 L 4.414062 25.648438 L 4.546875 26.730469 L 3.941406 27.269531 C 3.941406 27.269531 3.464844 27.203125 3.261719 26.863281 C 3.058594 26.527344 3.195312 25.851562 3.195312 25.851562 L 3.734375 25.308594 L 4.210938 24.632812 " fill-opacity="1" fill-rule="nonzero"/><path fill="#a6a6a6" d="M 11.925781 18.078125 C 11.925781 18.078125 12.261719 17.066406 12.195312 16.863281 C 12.128906 16.660156 11.859375 16.320312 11.859375 16.320312 L 11.925781 15.445312 L 12.332031 14.632812 C 12.671875 14.496094 13.347656 14.972656 13.347656 14.972656 L 13.617188 15.308594 L 14.5 14.632812 L 14.902344 15.378906 L 15.171875 16.050781 L 15.039062 17.066406 L 15.375 18.011719 L 16.191406 18.550781 L 17 18.890625 L 17.679688 19.296875 L 18.421875 19.160156 L 19.097656 19.902344 C 19.640625 20.308594 20.792969 20.308594 20.792969 20.308594 L 21.808594 20.445312 C 22.214844 20.78125 23.433594 19.769531 23.433594 19.769531 L 23.972656 19.363281 L 24.582031 19.835938 L 24.921875 20.582031 L 25.597656 20.984375 C 25.597656 20.984375 26.003906 21.726562 25.9375 22 C 25.867188 22.269531 26.070312 23.148438 26.070312 23.148438 L 26.273438 24.09375 L 26.816406 25.109375 C 27.292969 25.242188 27.96875 25.109375 27.96875 25.109375 L 28.578125 25.648438 L 29.320312 24.429688 C 29.863281 24.972656 30.402344 25.445312 30.402344 25.445312 L 31.285156 25.039062 C 31.285156 25.039062 31.824219 24.769531 32.027344 25.175781 C 32.230469 25.582031 32.90625 26.121094 32.5 26.390625 C 32.097656 26.660156 31.554688 27.136719 31.082031 27.40625 C 30.605469 27.675781 30.539062 28.011719 30.808594 28.148438 C 31.082031 28.285156 32.027344 28.6875 32.027344 28.6875 C 32.027344 28.6875 32.570312 28.957031 32.367188 29.296875 C 32.164062 29.632812 31.894531 30.039062 31.757812 30.378906 C 31.621094 30.714844 32.027344 30.78125 32.027344 31.1875 C 32.027344 31.59375 31.824219 32.066406 31.554688 32.40625 C 31.285156 32.742188 31.214844 33.148438 30.808594 33.214844 C 30.402344 33.28125 29.792969 32.945312 29.589844 33.082031 C 29.386719 33.214844 29.523438 33.214844 29.386719 33.757812 C 29.253906 34.300781 29.253906 34.90625 29.1875 35.175781 C 29.117188 35.445312 29.320312 35.578125 29.589844 35.984375 C 29.863281 36.390625 31.011719 37.269531 31.011719 37.269531 C 31.011719 37.269531 31.621094 37.8125 31.757812 38.148438 C 31.894531 38.488281 32.097656 39.230469 32.097656 39.230469 L 32.570312 39.703125 L 33.382812 39.097656 L 34.464844 38.621094 L 34.734375 38.285156 L 34.734375 37.472656 L 34.800781 36.460938 L 35.074219 35.785156 L 35.75 35.445312 L 36.96875 35.378906 L 37.441406 34.636719 L 37.714844 34.230469 L 38.59375 33.894531 L 39.945312 34.027344 L 40.621094 33.960938 L 41.570312 33.011719 L 42.246094 32.542969 C 42.246094 32.542969 42.859375 32.878906 42.925781 33.148438 C 42.992188 33.417969 43.535156 34.09375 43.535156 34.09375 C 43.535156 34.09375 44.34375 34.027344 44.277344 34.367188 C 44.210938 34.703125 44.007812 35.511719 44.007812 35.851562 C 44.007812 36.1875 44.140625 37.269531 44.277344 36.796875 C 44.414062 36.324219 45.699219 36.121094 45.699219 36.121094 L 46.582031 36.1875 L 47.390625 37 L 48.066406 36.59375 L 48.949219 35.378906 L 49.828125 34.570312 L 50.234375 33.960938 L 50.234375 31.796875 L 51.25 30.175781 L 52.0625 29.023438 L 53.214844 27.609375 L 53.753906 26.863281 L 53.484375 25.984375 L 54.566406 25.917969 L 55.515625 26.324219 L 56.664062 26.390625 C 56.664062 26.390625 57.410156 26.527344 57.882812 26.660156 C 58.359375 26.796875 59.167969 27.269531 59.167969 27.269531 C 59.167969 27.269531 59.777344 28.011719 59.777344 28.285156 C 59.777344 28.550781 60.386719 29.769531 60.457031 30.109375 C 60.523438 30.445312 61.128906 31.324219 61.128906 31.59375 C 61.128906 31.863281 62.6875 34.027344 63.027344 34.300781 C 63.367188 34.570312 64.109375 35.378906 64.109375 35.378906 L 64.988281 36.054688 C 64.988281 36.054688 66.007812 36.933594 66.140625 37.269531 C 66.277344 37.609375 67.019531 38.488281 67.019531 38.488281 L 68.511719 39.570312 C 68.511719 39.570312 69.933594 40.648438 70.269531 40.785156 C 70.609375 40.921875 72.367188 41.867188 72.367188 41.867188 L 73.585938 42.742188 C 73.585938 42.742188 74.398438 43.488281 74.601562 43.824219 C 74.804688 44.164062 75.617188 45.246094 75.753906 45.515625 C 75.886719 45.785156 78.933594 50.988281 78.933594 51.394531 C 78.933594 51.800781 80.421875 53.625 80.421875 54.09375 C 80.421875 54.570312 81.4375 56.257812 81.4375 56.257812 L 82.25 57.679688 L 83.058594 58.960938 C 83.058594 58.960938 83.128906 59.640625 82.992188 60.113281 C 82.859375 60.585938 82.992188 60.785156 82.925781 61.460938 C 82.859375 62.136719 83.128906 62.070312 83.195312 62.679688 C 83.261719 63.289062 83.605469 63.691406 83.605469 64.097656 C 83.605469 64.503906 84.414062 64.167969 84.007812 64.976562 C 83.605469 65.789062 83.332031 65.585938 83.261719 65.992188 C 83.195312 66.398438 83.195312 66.058594 83.402344 67.070312 C 83.605469 68.085938 83.804688 68.355469 84.007812 68.691406 C 84.210938 69.03125 84.414062 69.4375 84.210938 70.046875 C 84.007812 70.652344 84.078125 70.722656 83.941406 71.058594 C 83.804688 71.398438 82.925781 72.007812 82.722656 72.480469 C 82.519531 72.949219 82.046875 72.949219 81.773438 73.828125 C 81.503906 74.707031 81.976562 75.179688 81.910156 75.789062 C 81.84375 76.398438 82.519531 76.871094 82.382812 77.34375 C 82.25 77.816406 82.046875 78.152344 81.574219 78.695312 C 81.097656 79.234375 81.164062 78.832031 81.03125 79.84375 C 80.894531 80.855469 80.964844 81.332031 80.828125 82.007812 C 80.691406 82.683594 80.828125 82.683594 80.964844 83.492188 C 81.097656 84.304688 81.707031 85.722656 81.707031 85.722656 C 81.707031 85.722656 82.316406 86.535156 82.722656 86.804688 C 83.128906 87.074219 83.605469 87.480469 83.605469 87.886719 C 83.605469 88.292969 83.058594 90.386719 83.058594 90.386719 C 83.058594 90.386719 82.585938 91.804688 82.519531 92.140625 C 82.453125 92.480469 82.453125 93.765625 82.519531 94.167969 C 82.585938 94.574219 82.992188 94.507812 82.925781 95.523438 C 82.859375 96.535156 82.519531 98.695312 82.519531 98.695312 C 82.519531 98.695312 82.925781 98.695312 82.722656 99.980469 C 82.519531 101.265625 82.519531 102.078125 82.519531 102.347656 C 82.519531 102.617188 83.128906 103.832031 83.332031 104.171875 C 83.535156 104.511719 85.835938 106.941406 85.835938 106.941406 L 87.597656 108.15625 L 88.40625 108.632812 L 89.761719 109.105469 L 90.914062 109.714844 C 90.914062 109.714844 91.457031 110.523438 91.523438 110.863281 C 91.589844 111.199219 91.65625 111.46875 91.386719 111.941406 C 91.117188 112.414062 91.320312 113.023438 91.320312 113.023438 L 92.128906 113.699219 C 92.128906 113.699219 92.46875 113.96875 92.941406 114.511719 C 93.417969 115.050781 93.957031 115.726562 93.957031 115.726562 L 94.835938 117.011719 L 94.835938 117.753906 C 94.835938 117.753906 94.566406 117.957031 94.5 118.429688 C 94.433594 118.902344 95.3125 119.644531 95.449219 119.984375 C 95.582031 120.320312 96.53125 121.472656 96.53125 121.472656 C 96.53125 121.472656 97.207031 122.144531 97.34375 122.550781 C 97.476562 122.957031 97.882812 123.972656 97.882812 124.375 C 97.882812 124.78125 97.882812 124.644531 97.882812 125.527344 C 97.882812 126.402344 98.019531 126.605469 98.492188 126.808594 C 98.96875 127.011719 99.507812 127.550781 99.847656 127.890625 C 100.183594 128.230469 100.726562 129.714844 100.726562 129.714844 C 100.726562 129.714844 100.726562 130.59375 100.863281 131.132812 C 101 131.675781 101.539062 132.28125 101.675781 132.621094 C 101.8125 132.957031 101.742188 133.972656 101.8125 134.378906 C 101.878906 134.785156 102.011719 134.851562 102.148438 135.257812 C 102.285156 135.664062 101.8125 137.621094 101.8125 137.621094 C 101.8125 137.621094 101.945312 137.960938 101.402344 138.027344 C 100.863281 138.09375 100.929688 138.230469 99.847656 138.230469 C 98.761719 138.230469 98.761719 138.566406 98.15625 138.09375 C 97.546875 137.621094 97.546875 137.960938 97.546875 137.351562 C 97.546875 136.742188 97.816406 135.730469 97.816406 135.730469 C 97.816406 135.730469 97.816406 135.59375 97.140625 135.59375 C 96.460938 135.59375 96.53125 135.664062 96.125 135.933594 C 95.71875 136.203125 94.90625 136.203125 94.566406 136.203125 C 94.230469 136.203125 93.957031 136.136719 93.550781 136.136719 C 93.148438 136.136719 92.332031 135.933594 92.332031 135.933594 L 91.046875 134.714844 L 89.828125 134.988281 C 89.828125 134.988281 89.695312 135.191406 89.222656 135.257812 C 88.746094 135.324219 88.273438 135.59375 88.273438 135.59375 C 88.273438 135.59375 88.003906 135.664062 87.800781 136.136719 C 87.597656 136.609375 87.460938 137.6875 87.121094 137.6875 C 86.785156 137.6875 86.988281 138.230469 86.511719 138.160156 C 86.039062 138.09375 86.039062 138.09375 85.363281 138.09375 C 84.6875 138.09375 84.886719 138.160156 84.617188 138.429688 C 84.347656 138.703125 84.6875 138.902344 84.28125 139.039062 C 83.875 139.175781 82.925781 138.636719 82.925781 138.636719 C 82.925781 138.636719 81.503906 134.378906 81.300781 134.039062 C 81.097656 133.703125 80.894531 133.296875 80.488281 133.164062 C 80.082031 133.027344 79.066406 132.621094 79.066406 132.621094 L 78.121094 132.011719 L 76.96875 131.402344 C 76.96875 131.402344 76.15625 131.066406 75.820312 130.796875 C 75.480469 130.523438 74.871094 130.257812 74.871094 130.257812 C 74.871094 130.257812 73.722656 128.636719 73.449219 128.703125 C 73.179688 128.769531 71.351562 128.835938 71.351562 128.835938 L 71.011719 128.433594 C 71.011719 128.433594 70.472656 127.6875 70.066406 127.347656 C 69.660156 127.011719 69.726562 127.078125 69.117188 126.539062 C 68.511719 126 68.644531 125.796875 68.101562 125.863281 C 67.5625 125.929688 67.222656 125.929688 66.75 125.929688 C 66.277344 125.929688 66.414062 126.539062 65.800781 125.863281 C 65.191406 125.1875 64.921875 125.050781 64.515625 124.511719 C 64.109375 123.972656 64.109375 123.972656 63.636719 123.363281 C 63.164062 122.753906 60.65625 120.253906 60.65625 120.253906 C 60.65625 120.253906 59.441406 119.441406 58.832031 119.441406 C 58.222656 119.441406 58.289062 119.375 57.410156 118.902344 C 56.53125 118.429688 56.191406 117.886719 55.378906 117.753906 C 54.566406 117.617188 55.3125 118.429688 53.886719 117.347656 C 52.46875 116.269531 52.402344 116.269531 51.992188 115.863281 C 51.589844 115.457031 50.097656 113.835938 50.097656 113.835938 L 48.542969 112.617188 C 48.542969 112.617188 47.730469 112.011719 47.324219 111.535156 C 46.917969 111.066406 46.78125 110.996094 46.511719 110.589844 C 46.242188 110.1875 46.171875 110.117188 45.902344 109.714844 C 45.632812 109.308594 45.363281 109.308594 45.089844 109.105469 C 44.820312 108.902344 44.6875 108.835938 44.074219 108.632812 C 43.464844 108.429688 42.859375 108.632812 42.453125 108.292969 C 42.046875 107.953125 42.113281 107.953125 41.367188 107.414062 C 40.621094 106.875 40.417969 106.738281 39.675781 106.128906 C 38.933594 105.523438 37.238281 103.902344 37.238281 103.902344 C 37.238281 103.902344 36.5625 103.359375 36.15625 103.089844 C 35.75 102.820312 35.210938 102.550781 34.941406 102.007812 C 34.667969 101.46875 34.871094 101.265625 34.941406 100.792969 C 35.007812 100.320312 34.53125 100.046875 34.53125 100.046875 L 33.585938 99.574219 L 33.71875 98.089844 L 34.667969 97.683594 L 35.277344 97.886719 L 36.15625 97.957031 L 36.5625 97.414062 L 35.820312 96.671875 C 35.820312 96.671875 35.414062 96.0625 35.414062 95.792969 C 35.414062 95.523438 35.277344 95.050781 35.144531 94.777344 C 35.007812 94.507812 34.601562 93.628906 34.601562 93.628906 C 34.601562 93.628906 34.464844 93.695312 34.125 93.085938 C 33.789062 92.480469 33.652344 91.871094 33.652344 91.871094 C 33.652344 91.871094 33.179688 91.601562 32.769531 91.195312 C 32.367188 90.792969 32.164062 90.523438 31.894531 90.117188 C 31.621094 89.710938 31.214844 88.628906 31.011719 88.222656 C 30.808594 87.816406 30.875 87.816406 30.472656 87.207031 C 30.0625 86.601562 29.996094 86.734375 29.523438 86.0625 C 29.046875 85.386719 29.589844 85.921875 29.046875 85.386719 C 28.507812 84.84375 27.898438 84.304688 27.898438 84.304688 C 27.898438 84.304688 27.019531 83.695312 26.882812 83.425781 C 26.746094 83.15625 26.339844 82.410156 26.339844 82.410156 L 25.664062 81.9375 C 25.664062 81.9375 25.191406 82.007812 24.988281 81.601562 C 24.785156 81.195312 24.921875 80.855469 24.785156 80.65625 C 24.652344 80.449219 24.449219 80.179688 24.449219 80.179688 L 23.566406 79.640625 C 23.566406 79.640625 23.160156 79.574219 22.753906 79.171875 C 22.347656 78.761719 22.28125 78.96875 22.214844 78.492188 C 22.144531 78.019531 22.414062 77.410156 22.484375 76.871094 C 22.550781 76.328125 23.296875 75.921875 23.296875 75.921875 L 23.703125 75.316406 L 23.160156 74.234375 L 22.28125 73.355469 L 21.335938 72.816406 C 21.335938 72.816406 21.128906 73.082031 20.65625 72.210938 C 20.183594 71.328125 19.84375 70.652344 19.84375 70.382812 C 19.84375 70.113281 19.574219 69.707031 19.574219 69.371094 C 19.574219 69.03125 19.980469 66.867188 19.980469 66.601562 C 19.980469 66.328125 20.726562 65.921875 20.726562 65.921875 L 21.128906 65.113281 L 20.925781 63.828125 L 20.859375 63.355469 L 19.914062 63.019531 C 19.914062 63.019531 19.980469 62.207031 19.980469 61.9375 C 19.980469 61.664062 20.117188 61.054688 20.117188 61.054688 L 19.914062 60.3125 L 19.640625 59.640625 L 19.84375 59.234375 L 20.046875 58.894531 C 19.84375 58.421875 19.574219 58.761719 19.4375 58.421875 C 19.300781 58.085938 19.507812 57.410156 19.507812 57.410156 L 18.964844 56.460938 L 18.355469 56.527344 C 18.355469 56.527344 17.816406 56.933594 17.476562 56.257812 C 17.136719 55.582031 17.203125 56.058594 17.136719 55.582031 C 17.070312 55.109375 15.445312 52.003906 15.445312 52.003906 C 15.445312 52.003906 14.972656 51.394531 14.902344 50.988281 C 14.835938 50.582031 15.582031 49.972656 15.582031 49.972656 L 16.394531 48.691406 L 16.460938 46.867188 L 16.191406 45.988281 L 15.851562 45.175781 L 15.988281 44.5 C 15.988281 44.5 15.785156 44.164062 15.71875 43.757812 C 15.648438 43.351562 15.785156 42.675781 15.785156 42.675781 L 15.445312 41.867188 C 15.445312 41.867188 15.242188 41.527344 15.171875 41.1875 C 15.105469 40.851562 15.171875 39.636719 15.171875 39.636719 L 15.71875 36.460938 C 15.71875 36.460938 15.851562 32.675781 15.785156 32.339844 C 15.71875 32 15.648438 31.324219 15.511719 31.054688 C 15.375 30.78125 15.105469 30.308594 14.902344 29.835938 C 14.699219 29.363281 12.671875 25.984375 12.46875 25.714844 C 12.261719 25.445312 11.789062 24.5 11.789062 24.5 C 11.789062 24.5 11.65625 23.890625 11.453125 23.550781 C 11.25 23.214844 10.976562 22.472656 10.976562 22.472656 C 10.976562 22.472656 10.84375 21.390625 10.84375 21.121094 C 10.84375 20.851562 10.976562 19.902344 10.976562 19.902344 L 11.859375 18.347656 L 11.925781 18.078125 " fill-opacity="1" fill-rule="nonzero"/><path fill="#a6a6a6" d="M 12.261719 42.609375 L 13.480469 42.269531 L 14.09375 42.742188 L 14.566406 43.285156 L 15.039062 43.621094 L 14.699219 44.570312 C 14.699219 44.570312 14.699219 45.109375 14.5 45.449219 C 14.296875 45.785156 14.09375 45.921875 14.023438 46.257812 C 13.957031 46.597656 13.957031 47.136719 13.957031 47.136719 C 13.957031 47.136719 14.226562 47.609375 13.820312 47.742188 C 13.414062 47.878906 13.074219 47.675781 13.074219 47.675781 L 12.398438 47.136719 C 12.398438 47.136719 11.925781 47.070312 11.722656 47 C 11.519531 46.933594 11.25 47 11.113281 46.460938 C 10.976562 45.921875 11.722656 44.433594 11.722656 44.433594 L 11.992188 43.621094 L 12.261719 42.609375 " fill-opacity="1" fill-rule="nonzero"/><path fill="#a6a6a6" d="M 19.300781 70.722656 L 19.640625 72.007812 C 19.640625 72.007812 19.640625 72.75 19.234375 72.546875 C 18.828125 72.34375 18.421875 72.074219 18.421875 71.734375 C 18.421875 71.398438 18.695312 70.921875 18.695312 70.921875 L 19.300781 70.722656 " fill-opacity="1" fill-rule="nonzero"/><path fill="#a6a6a6" d="M 98.832031 102.210938 L 99.644531 102.6875 L 100.050781 103.765625 L 100.457031 104.914062 L 100.523438 105.722656 L 100.117188 106.601562 C 100.117188 106.601562 99.777344 107.007812 99.304688 106.804688 C 98.832031 106.601562 98.425781 106.332031 98.222656 106.0625 C 98.019531 105.792969 97.882812 105.589844 97.882812 105.25 C 97.882812 104.914062 98.289062 104.441406 98.289062 104.441406 L 98.832031 103.832031 L 98.695312 102.957031 C 98.695312 102.957031 98.289062 102.210938 98.832031 102.210938 " fill-opacity="1" fill-rule="nonzero"/><g clip-path="url(#6e5a0b80f2)"><path fill="#a6a6a6" d="M 152.152344 125.253906 C 152.152344 125.253906 152.761719 124.578125 153.03125 124.441406 C 153.300781 124.308594 153.84375 124.171875 153.84375 124.171875 L 154.386719 123.835938 L 154.316406 122.753906 L 154.519531 122.011719 C 154.519531 122.011719 154.652344 121.742188 154.792969 122.078125 C 154.925781 122.414062 155.199219 123.769531 155.199219 123.769531 L 155.46875 125.929688 L 156.078125 127.011719 L 158.242188 128.160156 L 159.191406 128.636719 L 159.800781 128.90625 L 160.203125 129.648438 L 160.679688 130.1875 L 161.761719 130.726562 L 162.238281 131.066406 L 162.640625 130.996094 L 162.847656 130.457031 L 164.132812 130.660156 L 165.082031 130.863281 L 167.378906 130.726562 L 168.601562 130.796875 L 169.207031 130.996094 C 169.480469 130.457031 170.15625 129.242188 170.15625 129.242188 L 170.289062 128.433594 L 170.496094 128.027344 C 170.496094 128.027344 171.035156 128.363281 171.035156 128.90625 C 171.035156 129.445312 171.238281 130.1875 171.238281 130.1875 L 172.050781 130.660156 L 172.933594 130.863281 L 173.335938 129.714844 L 174.621094 129.511719 C 174.621094 129.511719 175.367188 129.578125 175.164062 129.917969 C 174.960938 130.257812 174.960938 130.390625 174.488281 130.929688 C 174.011719 131.472656 174.148438 132.28125 174.421875 132.351562 C 174.691406 132.417969 175.636719 132.757812 175.636719 132.757812 L 177.398438 132.890625 L 178.820312 133.703125 L 179.496094 134.175781 L 180.105469 134.039062 L 181.1875 133.5 L 182.339844 133.90625 L 183.355469 134.511719 L 184.574219 134.851562 L 185.316406 135.460938 L 185.996094 136.136719 L 187.007812 137.011719 L 188.160156 138.027344 L 190.054688 138.429688 L 190.800781 138.160156 L 191.949219 137.960938 L 192.761719 138.429688 L 193.234375 139.242188 L 193.574219 138.839844 L 193.234375 138.09375 L 193.03125 137.554688 L 192.355469 137.351562 C 192.355469 137.351562 191.746094 137.757812 191.40625 137.6875 C 191.070312 137.621094 191.203125 137.484375 190.800781 137.484375 C 190.394531 137.484375 190.125 137.484375 189.785156 137.351562 C 189.445312 137.214844 189.582031 137.417969 189.039062 137.011719 C 188.496094 136.609375 188.160156 136.40625 188.160156 136.40625 L 187.414062 135.933594 L 186.875 135.460938 L 186.265625 134.714844 C 186.265625 134.714844 186.128906 134.988281 185.925781 134.3125 C 185.722656 133.632812 185.789062 133.09375 185.789062 132.757812 C 185.789062 132.417969 186.265625 131.472656 186.265625 131.472656 C 186.265625 131.472656 187.078125 130.796875 187.480469 130.929688 C 187.886719 131.066406 188.972656 131.132812 188.972656 131.132812 L 189.378906 130.996094 C 189.378906 130.996094 188.160156 130.1875 188.09375 129.851562 C 188.023438 129.511719 188.09375 129.578125 188.023438 129.105469 C 187.957031 128.636719 188.160156 128.09375 188.160156 128.09375 C 188.160156 128.09375 190.054688 124.914062 190.125 124.644531 C 190.191406 124.375 190.597656 122.347656 190.597656 122.347656 L 190.933594 121.472656 L 191.273438 120.863281 L 192.152344 120.796875 L 193.167969 121.066406 L 193.980469 121.539062 L 194.253906 120.320312 L 194.792969 120.050781 L 195.945312 120.589844 L 196.753906 120.660156 L 197.566406 120.589844 L 197.976562 120.320312 L 196.960938 119.984375 L 196.28125 120.050781 L 194.925781 119.78125 L 194.183594 119.914062 L 193.4375 120.253906 C 192.964844 120.457031 192.695312 120.253906 192.289062 120.390625 C 191.882812 120.523438 191.675781 120.589844 191.273438 120.523438 C 190.867188 120.457031 190.867188 120.457031 190.867188 120.457031 L 190.394531 118.363281 L 190.460938 117.011719 L 190.394531 116.066406 L 190.53125 115.253906 L 190.597656 114.714844 L 191.8125 114.171875 L 192.558594 113.96875 L 193.371094 114.441406 L 193.980469 115.1875 L 194.589844 115.457031 L 195.742188 115.1875 L 196.484375 115.386719 L 197.5 115.792969 L 198.378906 115.929688 L 199.121094 116.132812 L 199.800781 115.863281 L 200.546875 115.996094 C 200.882812 115.996094 201.496094 116.402344 201.496094 116.402344 L 202.238281 117.28125 L 203.050781 117.753906 L 204.609375 118.363281 L 205.757812 118.699219 L 206.839844 119.039062 C 206.839844 119.039062 207.59375 119.742188 207.519531 119.511719 C 207.382812 119.105469 206.027344 118.226562 206.027344 118.226562 L 205.148438 118.089844 C 205.148438 118.089844 204.742188 118.023438 204.402344 117.820312 C 204.066406 117.617188 203.457031 117.347656 203.457031 117.347656 L 202.710938 116.878906 L 201.765625 116.402344 L 201.289062 115.792969 L 200.953125 115.253906 C 200.953125 115.253906 200.546875 115.457031 200.34375 115.117188 C 200.140625 114.78125 199.9375 114.441406 199.867188 114.105469 C 199.800781 113.765625 199.394531 113.429688 199.394531 113.429688 C 199.394531 113.429688 198.851562 113.359375 198.515625 113.089844 C 198.175781 112.820312 197.90625 112.550781 197.566406 112.414062 C 197.230469 112.28125 196.554688 111.738281 196.554688 111.738281 C 196.554688 111.738281 196.011719 111.875 195.875 111.265625 C 195.742188 110.660156 195.535156 110.253906 195.46875 109.78125 C 195.398438 109.308594 195.742188 108.15625 195.742188 108.15625 L 196.214844 107.210938 L 197.230469 106.265625 C 197.230469 106.265625 201.425781 105.320312 201.695312 104.914062 C 201.96875 104.511719 203.59375 103.832031 203.59375 103.832031 L 205.078125 103.765625 L 206.570312 103.089844 L 207.925781 102.820312 L 209.546875 102.957031 L 210.765625 102.617188 L 212.726562 102.078125 L 220.308594 100.183594 L 223.894531 99.304688 L 225.925781 98.898438 L 227.484375 98.359375 L 229.378906 98.292969 L 233.777344 95.726562 L 234.183594 95.183594 C 234.183594 95.183594 234.046875 94.644531 233.980469 94.304688 C 233.914062 93.964844 233.980469 93.496094 233.980469 93.496094 C 233.980469 93.496094 234.523438 92.820312 234.996094 92.410156 C 235.472656 92.007812 238.109375 90.046875 238.175781 89.710938 C 238.242188 89.371094 239.871094 86.9375 239.871094 86.9375 L 240.34375 85.722656 L 240.886719 84.574219 L 241.492188 83.761719 L 241.695312 83.222656 C 241.695312 83.222656 245.894531 80.113281 245.960938 79.773438 C 246.027344 79.4375 247.585938 78.222656 247.585938 78.222656 L 249.007812 77.074219 L 250.160156 75.722656 L 250.765625 74.574219 L 251.984375 73.152344 L 254.21875 68.828125 L 254.355469 66.867188 L 254.558594 65.449219 L 254.421875 64.4375 L 254.488281 63.558594 L 255.910156 63.625 L 257.535156 64.03125 L 258.550781 64.167969 L 259.292969 64.640625 L 260.039062 65.449219 L 260.785156 65.992188 C 260.785156 65.992188 261.394531 67.207031 261.664062 67.476562 C 261.933594 67.746094 262.339844 68.085938 262.207031 68.421875 C 262.070312 68.761719 262.003906 69.4375 262.003906 69.707031 C 262.003906 69.976562 261.933594 70.382812 261.867188 70.921875 C 261.800781 71.464844 262.207031 71.734375 262.207031 71.734375 L 264.980469 71.261719 L 265.523438 72.277344 L 266.0625 73.355469 C 266.0625 73.355469 266.199219 73.421875 266.265625 73.761719 C 266.335938 74.101562 267.6875 74.84375 267.6875 74.84375 L 268.835938 75.722656 C 268.835938 75.722656 268.769531 76.328125 269.039062 76.53125 C 269.3125 76.734375 271.207031 76.128906 271.277344 75.722656 C 271.34375 75.316406 272.289062 74.300781 272.289062 74.300781 L 273.441406 73.355469 L 273.847656 71.53125 L 274.386719 69.910156 C 274.386719 69.910156 274.929688 69.234375 274.863281 68.964844 C 274.792969 68.691406 274.863281 67.816406 274.792969 67.476562 C 274.726562 67.140625 273.644531 65.25 273.578125 64.910156 C 273.507812 64.570312 273.578125 64.167969 273.441406 63.828125 C 273.304688 63.488281 273.238281 62.882812 273.167969 62.542969 C 273.101562 62.207031 272.832031 61.53125 272.832031 61.53125 C 272.832031 61.53125 272.628906 60.988281 272.628906 60.515625 C 272.628906 60.046875 273.710938 59.570312 273.710938 59.570312 L 274.320312 59.097656 L 274.792969 58.421875 L 275.402344 58.421875 L 276.082031 58.691406 L 276.960938 57.949219 L 277.503906 57.003906 L 278.042969 56.730469 C 278.042969 56.730469 278.246094 57.746094 278.246094 58.21875 C 278.246094 58.691406 278.179688 59.570312 278.179688 60.046875 C 278.179688 60.515625 278.515625 61.730469 278.515625 62.273438 C 278.515625 62.816406 278.71875 64.300781 278.71875 64.300781 C 278.71875 64.300781 279.128906 64.707031 279.195312 65.042969 C 279.261719 65.382812 279.53125 66.195312 279.53125 66.195312 C 279.53125 66.195312 279.601562 67.816406 279.53125 68.085938 C 279.464844 68.355469 279.464844 68.355469 279.464844 68.355469 L 281.96875 68.625 L 283.457031 69.300781 C 283.457031 69.300781 283.929688 69.371094 284 69.640625 C 284.066406 69.910156 284.609375 70.046875 284.609375 70.046875 L 285.21875 69.84375 C 285.21875 69.84375 285.960938 69.300781 285.625 69.03125 C 285.285156 68.761719 284.746094 68.152344 284.40625 67.949219 C 284.066406 67.746094 284.132812 67.679688 284 67.34375 C 283.863281 67.003906 283.863281 66.734375 283.863281 66.058594 C 283.863281 65.382812 284.066406 64.707031 284 64.234375 C 283.929688 63.761719 283.796875 62.816406 283.796875 62.816406 L 283.324219 61.867188 C 283.324219 61.867188 282.847656 61.328125 282.847656 60.988281 C 282.847656 60.652344 282.984375 60.246094 282.847656 59.976562 C 282.710938 59.707031 282.78125 59.640625 282.441406 59.097656 C 282.105469 58.558594 281.632812 57.882812 281.632812 57.882812 C 281.632812 57.882812 281.363281 57.410156 281.089844 57.136719 C 280.816406 56.867188 280.480469 56.328125 280.480469 56.328125 L 281.765625 54.976562 L 282.78125 55.3125 L 283.929688 56.328125 L 285.757812 56.257812 L 287.113281 55.246094 L 288.601562 53.625 L 289.210938 52.40625 L 289.953125 51.53125 C 289.953125 51.53125 290.429688 51.058594 290.292969 50.71875 C 290.15625 50.378906 289.953125 49.773438 289.953125 49.773438 C 289.953125 49.773438 290.09375 49.296875 289.480469 49.164062 C 288.875 49.027344 288.667969 48.757812 288.0625 48.554688 C 287.453125 48.351562 287.046875 48.351562 286.570312 47.878906 C 286.097656 47.40625 286.164062 47.945312 285.757812 47.203125 C 285.355469 46.460938 285.21875 46.394531 285.21875 45.921875 C 285.21875 45.449219 286.027344 44.300781 286.027344 44.300781 L 287.789062 43.21875 L 288.941406 41.933594 L 289.820312 40.921875 L 289.953125 40.042969 L 290.5625 39.433594 L 291.3125 40.71875 L 291.785156 41.460938 L 293.003906 41.867188 L 294.558594 42.066406 L 295.910156 41.527344 L 296.589844 40.921875 L 297.265625 39.636719 L 297.265625 38.011719 L 297.535156 37 C 297.535156 37 298.210938 36.054688 298.484375 35.851562 C 298.757812 35.648438 299.703125 35.105469 299.703125 35.105469 L 300.582031 34.433594 L 300.71875 32.40625 L 300.445312 31.054688 L 301.664062 31.527344 L 302.546875 30.851562 C 302.546875 30.851562 302.953125 30.242188 302.882812 29.972656 C 302.816406 29.703125 303.222656 28.957031 302.882812 28.957031 C 302.546875 28.957031 302.070312 28.824219 302.070312 28.824219 C 302.070312 28.824219 301.800781 28.417969 302.070312 27.945312 C 302.34375 27.472656 303.761719 26.253906 303.761719 26.253906 L 304.375 25.582031 L 304.980469 24.699219 L 305.792969 24.363281 L 306.742188 23.890625 L 306.269531 22.605469 L 309.585938 20.445312 L 310.464844 19.5 L 310.734375 18.753906 L 311.273438 17.671875 L 312.699219 15.847656 L 313.171875 15.582031 L 313.578125 14.566406 L 313.035156 13.621094 L 313.238281 12.875 L 313.847656 12.335938 L 313.578125 11.792969 L 313.507812 11.1875 C 313.507812 11.1875 314.320312 10.578125 314.457031 10.171875 C 314.59375 9.765625 315.066406 8.484375 315.066406 8.484375 L 315.539062 7.46875 C 315.539062 7.46875 316.285156 7.671875 316.488281 7.941406 C 316.691406 8.214844 317.503906 9.226562 317.503906 9.5625 C 317.503906 9.902344 317.84375 10.511719 317.84375 10.917969 C 317.84375 11.320312 318.113281 11.859375 318.113281 12.265625 C 318.113281 12.671875 318.316406 12.808594 317.976562 13.484375 C 317.636719 14.160156 317.367188 14.566406 316.960938 15.175781 C 316.558594 15.78125 316.421875 16.117188 316.21875 16.523438 C 316.015625 16.929688 316.015625 18.011719 316.015625 18.011719 C 316.015625 18.011719 316.285156 18.621094 316.625 18.484375 C 316.960938 18.347656 318.046875 17.402344 318.046875 17.402344 L 318.992188 16.523438 L 319.601562 15.582031 L 320.550781 14.902344 L 321.023438 14.429688 L 321.425781 13.214844 L 321.699219 11.996094 L 322.582031 10.511719 C 322.582031 10.511719 322.105469 10.035156 322.039062 9.699219 C 321.96875 9.359375 322.242188 9.09375 322.242188 9.09375 L 324.542969 8.417969 L 325.625 9.023438 L 326.097656 9.5625 L 326.777344 9.832031 L 326.574219 11.320312 C 326.574219 11.320312 326.503906 11.457031 326.304688 11.929688 C 326.097656 12.402344 326.167969 12.671875 326.371094 13.011719 C 326.574219 13.347656 327.25 14.226562 327.25 14.226562 C 327.25 14.226562 327.589844 14.566406 327.453125 14.972656 C 327.316406 15.378906 327.25 15.378906 327.519531 15.917969 C 327.792969 16.457031 328.398438 16.996094 328.398438 16.996094 L 329.417969 17.132812 L 330.023438 17.605469 L 330.433594 18.484375 L 331.515625 18.484375 L 332.121094 18.28125 L 332.527344 16.929688 L 332.933594 17.066406 L 333.882812 18.890625 L 335.84375 19.972656 L 337.0625 21.054688 L 337.472656 21.933594 C 337.472656 21.933594 337.875 22.875 337.605469 23.550781 C 337.335938 24.226562 337.402344 24.363281 337.402344 24.835938 C 337.402344 25.308594 337.808594 26.1875 337.132812 26.121094 C 336.457031 26.054688 336.183594 24.769531 335.777344 25.378906 C 335.371094 25.984375 335.03125 25.984375 335.03125 26.527344 C 335.03125 27.066406 334.898438 27.472656 335.371094 27.878906 C 335.84375 28.285156 336.316406 28.890625 336.316406 28.890625 C 336.316406 28.890625 336.519531 29.5 336.316406 30.039062 C 336.117188 30.578125 335.710938 31.1875 335.980469 31.390625 C 336.25 31.59375 336.726562 30.578125 336.386719 31.863281 C 336.046875 33.148438 335.777344 33.484375 336.589844 33.417969 C 337.402344 33.351562 338.621094 33.082031 338.621094 33.082031 L 339.636719 32.675781 L 340.3125 32.269531 L 341.125 32.339844 C 341.125 32.339844 341.53125 32.742188 341.53125 32.40625 C 341.53125 32.066406 342.207031 30.851562 342.207031 30.851562 L 343.15625 30.578125 C 343.15625 30.578125 343.699219 30.511719 344.035156 30.648438 C 344.371094 30.78125 345.320312 31.796875 345.320312 31.796875 L 345.457031 32.945312 C 345.457031 32.945312 345.660156 33.484375 345.320312 33.894531 C 344.984375 34.300781 344.574219 35.105469 344.574219 35.105469 C 344.574219 35.105469 344.644531 35.714844 344.238281 35.511719 C 343.832031 35.308594 343.089844 34.90625 342.746094 34.972656 C 342.410156 35.039062 341.9375 35.308594 341.867188 35.511719 C 341.800781 35.714844 341.597656 35.851562 342.003906 36.1875 C 342.410156 36.527344 342.882812 36.59375 342.882812 36.863281 C 342.882812 37.136719 342.816406 37.675781 342.816406 37.878906 C 342.816406 38.082031 343.832031 38.148438 343.832031 38.148438 L 344.710938 37.8125 L 345.117188 38.351562 C 345.117188 38.351562 346.472656 37.945312 346.472656 37.609375 C 346.472656 37.269531 347.082031 37.066406 347.082031 37.066406 L 347.351562 36.121094 L 347.488281 35.378906 C 347.488281 35.378906 347.554688 34.570312 347.960938 34.636719 C 348.367188 34.703125 349.246094 34.835938 349.246094 34.835938 L 349.71875 35.039062 L 351.480469 35.308594 L 353.039062 35.648438 L 354.664062 36.933594 L 355.472656 37.472656 L 356.015625 38.21875 L 355.609375 39.703125 L 356.082031 40.648438 L 356.894531 40.648438 L 357.503906 39.433594 L 358.179688 39.433594 L 359.535156 40.582031 L 360.6875 41.324219 L 361.429688 42.269531 L 362.917969 43.285156 L 363.59375 43.757812 L 363.730469 44.230469 C 363.730469 44.230469 363.460938 44.839844 363.460938 45.042969 C 363.460938 45.246094 364.273438 45.175781 364.273438 45.175781 L 364.816406 44.769531 L 365.015625 44.164062 L 366.304688 44.433594 L 367.386719 44.367188 L 368.199219 44.097656 L 369.011719 43.21875 C 369.011719 43.21875 371.109375 44.769531 371.109375 45.175781 C 371.109375 45.582031 371.515625 45.582031 371.3125 46.328125 C 371.109375 47.070312 371.175781 47.609375 371.109375 48.015625 C 371.039062 48.421875 371.582031 48.757812 371.378906 49.164062 C 371.175781 49.570312 369.484375 50.988281 368.808594 51.328125 C 368.132812 51.664062 366.84375 52.40625 366.84375 52.40625 C 366.84375 52.40625 366.4375 52.746094 365.695312 52.949219 C 364.949219 53.152344 365.625 52.882812 364.542969 53.085938 C 363.460938 53.289062 363.933594 52.949219 363.191406 53.355469 C 362.445312 53.761719 362.917969 53.558594 362.039062 54.027344 C 361.160156 54.5 360.957031 55.3125 360.210938 55.175781 C 359.464844 55.042969 359.738281 55.175781 358.859375 54.976562 C 357.976562 54.773438 356.488281 54.703125 356.488281 54.703125 L 355.609375 55.3125 C 354.933594 55.652344 354.796875 55.652344 354.324219 55.246094 C 353.847656 54.839844 353.847656 54.570312 353.714844 54.09375 C 353.578125 53.625 353.847656 53.492188 353.375 53.355469 C 352.902344 53.21875 352.632812 53.152344 352.632812 53.152344 L 352.023438 53.558594 C 352.023438 53.558594 352.292969 53.828125 351.953125 54.09375 C 351.617188 54.367188 351.144531 54.703125 350.734375 54.703125 C 350.332031 54.703125 349.71875 54.636719 349.71875 54.636719 L 348.636719 54.433594 C 348.636719 54.433594 348.367188 54.570312 348.097656 54.90625 C 347.828125 55.246094 347.960938 55.652344 347.554688 56.058594 C 347.148438 56.460938 346.8125 55.921875 347.148438 56.460938 C 347.488281 57.003906 348.027344 57.273438 348.5 57.8125 C 348.976562 58.355469 349.042969 58.761719 349.179688 59.03125 C 349.316406 59.300781 349.316406 59.234375 349.382812 60.179688 C 349.449219 61.125 349.855469 61.867188 350.125 62.003906 C 350.394531 62.136719 350.941406 62.476562 351.277344 62.476562 C 351.617188 62.476562 352.089844 62.816406 352.089844 62.816406 L 352.902344 63.355469 L 353.847656 63.085938 L 354.863281 63.761719 L 354.933594 64.4375 C 354.933594 64.4375 354.1875 64.640625 354.253906 65.042969 C 354.324219 65.449219 354.933594 65.71875 355.203125 65.71875 C 355.472656 65.71875 356.082031 65.042969 356.082031 65.042969 L 356.894531 64.707031 L 357.640625 64.976562 L 357.976562 65.992188 L 358.046875 66.800781 C 358.046875 66.800781 357.976562 67.613281 357.503906 67.679688 C 357.03125 67.746094 356.894531 68.085938 356.351562 68.289062 C 355.8125 68.492188 355.40625 68.152344 355.203125 68.21875 C 355 68.289062 350.941406 68.761719 350.941406 68.761719 L 347.488281 70.113281 C 347.488281 70.113281 346.472656 70.449219 345.996094 70.585938 C 345.523438 70.722656 345.660156 70.585938 345.117188 70.921875 C 344.574219 71.261719 344.371094 71.53125 343.832031 71.398438 C 343.292969 71.261719 343.496094 71.597656 342.679688 71.058594 C 341.867188 70.519531 341.867188 70.449219 341.597656 70.246094 C 341.328125 70.046875 341.058594 69.777344 340.785156 69.707031 C 340.515625 69.640625 340.109375 69.503906 339.90625 69.167969 C 339.703125 68.828125 339.433594 68.964844 339.023438 68.691406 C 338.621094 68.421875 337.875 68.625 337.605469 68.289062 C 337.335938 67.949219 336.589844 67.410156 336.589844 67.410156 C 336.589844 67.410156 336.316406 67.273438 335.914062 67.410156 C 335.507812 67.546875 335.371094 67.273438 335.238281 67.816406 C 335.097656 68.355469 335.507812 68.625 335.507812 68.625 C 335.507812 68.625 335.84375 69.167969 335.507812 69.234375 C 335.167969 69.300781 334.898438 68.894531 334.898438 69.503906 C 334.898438 70.113281 335.167969 70.585938 335.710938 70.722656 C 336.25 70.855469 336.726562 70.921875 336.726562 70.921875 C 336.726562 70.921875 336.726562 71.058594 336.589844 71.398438 C 336.457031 71.734375 335.914062 71.871094 335.710938 72.140625 C 335.507812 72.410156 336.046875 72.140625 335.238281 72.34375 C 334.425781 72.546875 334.289062 72.613281 333.882812 72.679688 C 333.476562 72.75 334.019531 73.355469 332.933594 72.816406 C 331.851562 72.277344 331.648438 72.140625 331.105469 71.734375 C 330.566406 71.328125 330.296875 70.921875 330.160156 70.585938 C 330.023438 70.246094 329.621094 69.84375 329.621094 69.84375 C 329.621094 69.84375 329.417969 69.910156 328.941406 69.570312 C 328.46875 69.234375 327.519531 68.21875 327.519531 68.21875 C 327.519531 68.21875 327.316406 67.882812 326.980469 68.085938 C 326.640625 68.289062 326.4375 68.964844 325.761719 68.894531 C 325.082031 68.828125 325.558594 68.558594 324.472656 68.691406 C 323.390625 68.828125 322.78125 68.761719 322.039062 68.828125 C 321.292969 68.894531 320.953125 68.964844 320.550781 68.828125 C 320.144531 68.691406 320.074219 68.085938 319.601562 68.492188 C 319.125 68.894531 318.789062 69.167969 318.316406 69.03125 C 317.84375 68.894531 317.976562 68.894531 317.367188 68.625 C 316.757812 68.355469 316.082031 67.949219 316.082031 67.949219 C 316.082031 67.949219 316.148438 68.492188 315.8125 68.691406 C 315.472656 68.894531 314.726562 68.492188 314.1875 68.761719 C 313.644531 69.03125 313.308594 69.03125 313.308594 69.03125 C 313.308594 69.03125 312.96875 67.679688 312.632812 67.816406 C 312.292969 67.949219 312.5625 67.746094 312.019531 68.085938 C 311.480469 68.421875 311.546875 68.828125 311.140625 69.234375 C 310.734375 69.640625 310.394531 69.777344 310.058594 69.910156 C 309.71875 70.046875 309.515625 70.179688 309.246094 69.84375 C 308.976562 69.503906 308.300781 68.828125 308.027344 68.558594 C 307.757812 68.289062 307.6875 67.949219 307.351562 68.152344 C 307.011719 68.355469 305.660156 68.421875 305.660156 68.421875 L 303.761719 68.152344 C 303.761719 68.152344 303.425781 68.894531 303.355469 69.234375 C 303.289062 69.570312 303.964844 69.503906 303.289062 69.570312 C 302.613281 69.640625 302.546875 69.503906 302.140625 69.84375 C 301.734375 70.179688 302.140625 70.382812 301.800781 70.449219 C 301.464844 70.519531 300.851562 70.179688 300.445312 69.84375 C 300.039062 69.503906 299.835938 69.300781 299.296875 69.234375 C 298.757812 69.167969 297.402344 68.355469 297.402344 68.355469 L 296.925781 69.570312 C 296.925781 69.570312 296.859375 71.195312 296.453125 71.398438 C 296.046875 71.597656 295.574219 72.007812 295.574219 72.007812 L 294.492188 71.734375 C 293.8125 72.410156 293.40625 73.152344 293.136719 73.492188 C 292.867188 73.828125 292.597656 73.828125 292.597656 74.167969 C 292.597656 74.503906 292.730469 74.300781 292.597656 75.316406 C 292.460938 76.328125 292.257812 76.464844 292.257812 76.667969 C 292.257812 76.871094 291.851562 78.222656 291.851562 78.222656 L 291.242188 78.425781 C 291.242188 78.425781 290.769531 78.085938 290.5625 78.355469 C 290.359375 78.628906 290.226562 79.304688 290.226562 79.304688 C 290.226562 79.304688 290.972656 79.4375 291.105469 79.773438 C 291.242188 80.113281 291.445312 79.976562 291.378906 80.449219 C 291.3125 80.925781 291.105469 81.195312 291.039062 81.601562 C 290.972656 82.007812 290.902344 82.34375 290.769531 82.683594 C 290.632812 83.019531 290.5625 84.371094 290.5625 84.980469 C 290.5625 85.589844 290.839844 86.667969 290.839844 86.667969 C 290.839844 86.667969 291.105469 87.410156 291.105469 87.683594 C 291.105469 87.953125 291.851562 89.101562 291.851562 89.101562 L 291.988281 89.914062 L 291.039062 90.523438 C 291.039062 90.523438 291.105469 90.117188 290.5625 90.25 C 290.023438 90.386719 290.023438 90.117188 289.75 91.265625 C 289.480469 92.410156 289.210938 93.765625 289.210938 93.765625 C 289.210938 93.765625 289.210938 93.964844 289.210938 94.507812 C 289.210938 95.050781 289.617188 95.386719 289.75 95.726562 C 289.886719 96.0625 290.226562 96.535156 289.886719 96.804688 C 289.550781 97.078125 289.820312 96.875 289.28125 97.550781 C 288.738281 98.226562 288.398438 98.089844 288.0625 98.496094 C 287.722656 98.898438 287.992188 99.4375 287.65625 99.644531 C 287.316406 99.847656 286.910156 99.371094 286.503906 99.644531 C 286.097656 99.914062 286.234375 100.523438 286.234375 100.523438 C 284.949219 100.726562 284.609375 100.320312 284.472656 99.980469 C 284.335938 99.644531 283.796875 99.238281 283.796875 99.238281 C 283.324219 99.777344 283.1875 100.320312 283.1875 100.320312 L 282.441406 101.46875 L 281.15625 101.738281 C 281.15625 101.738281 280.75 101.804688 280.617188 102.078125 C 280.480469 102.347656 280.816406 102.550781 280.75 102.957031 C 280.683594 103.359375 280.074219 104.035156 280.074219 104.035156 L 279.53125 104.171875 L 280.683594 105.117188 C 280.683594 105.117188 281.023438 105.183594 280.886719 105.523438 C 280.75 105.859375 280.074219 106.671875 280.074219 106.671875 C 279.804688 107.078125 280.007812 107.347656 280.140625 107.617188 C 280.277344 107.886719 280.816406 107.753906 280.34375 108.15625 C 279.871094 108.566406 279.9375 108.023438 279.871094 108.566406 C 279.804688 109.105469 280.277344 109.644531 280.277344 109.644531 L 281.226562 109.507812 C 281.632812 109.242188 282.105469 109.714844 282.105469 109.714844 C 282.105469 109.714844 282.847656 109.984375 282.984375 110.457031 C 283.121094 110.929688 284.335938 110.1875 283.1875 111.199219 C 282.035156 112.210938 282.171875 112.210938 281.765625 112.210938 C 281.363281 112.210938 281.835938 111.605469 281.363281 112.210938 C 280.886719 112.820312 280.34375 113.15625 280.34375 113.15625 L 278.785156 114.375 L 278.246094 114.171875 L 277.707031 114.78125 L 277.234375 114.984375 L 276.621094 114.578125 L 276.621094 115.59375 C 276.621094 115.59375 276.757812 116.132812 276.554688 116.46875 C 276.351562 116.808594 276.148438 117.078125 275.605469 117.214844 C 275.066406 117.347656 273.710938 117.148438 273.710938 117.148438 C 273.710938 117.148438 273.304688 117.28125 273.035156 117.753906 C 272.761719 118.226562 272.15625 118.566406 271.882812 118.699219 C 271.613281 118.832031 271.816406 119.78125 271.816406 119.78125 L 272.695312 120.1875 L 273.441406 120.390625 C 273.441406 120.390625 273.507812 120.929688 273.375 121.40625 C 273.238281 121.875 273.238281 122.414062 273.238281 122.414062 L 274.050781 122.414062 C 274.050781 122.414062 274.929688 122.484375 274.929688 122.6875 C 274.929688 122.890625 274.589844 123.429688 274.457031 123.769531 C 274.320312 124.105469 274.320312 124.105469 274.320312 124.105469 C 274.320312 124.105469 275.066406 124.375 274.792969 124.78125 C 274.523438 125.1875 273.78125 125.730469 273.78125 125.730469 L 273.304688 126.132812 C 273.304688 126.132812 273.304688 126.539062 273.035156 126.539062 C 272.761719 126.539062 272.019531 125.863281 271.683594 126.402344 C 271.34375 126.945312 271.003906 127.078125 270.9375 127.484375 C 270.871094 127.890625 271.003906 128.835938 271.003906 128.835938 C 271.003906 128.835938 271.613281 128.90625 271.480469 129.578125 C 271.34375 130.257812 271.613281 130.996094 271.277344 131.402344 C 270.9375 131.808594 269.855469 132.28125 269.855469 132.28125 C 269.855469 132.28125 269.039062 132.214844 268.835938 132.757812 C 268.636719 133.296875 268.769531 133.632812 268.636719 134.109375 C 268.5 134.582031 268.566406 134.917969 268.160156 135.257812 C 267.757812 135.59375 267.890625 135.527344 267.347656 135.664062 C 266.808594 135.796875 265.113281 134.785156 264.710938 134.648438 C 264.304688 134.511719 263.832031 134.175781 263.832031 134.175781 C 263.832031 134.175781 261.730469 135.664062 261.460938 135.867188 C 261.191406 136.066406 259.703125 136.675781 259.703125 136.675781 C 259.703125 136.675781 259.5625 136.808594 259.160156 136.609375 C 258.753906 136.40625 258.347656 136.066406 258.347656 136.066406 L 257.195312 135.933594 C 257.195312 135.933594 256.859375 136.269531 256.046875 136.335938 C 255.230469 136.40625 255.367188 136.539062 254.761719 136.609375 C 254.152344 136.675781 253.542969 136.878906 253.542969 136.878906 C 253.542969 136.878906 252.933594 136.945312 252.253906 137.351562 C 251.578125 137.757812 251.035156 138.566406 251.035156 138.566406 C 250.765625 139.039062 249.550781 140.125 249.007812 140.324219 C 248.46875 140.527344 247.246094 141.203125 247.246094 141.203125 C 246.503906 141.472656 246.027344 141.472656 245.757812 141 C 245.488281 140.527344 245.011719 139.648438 245.011719 139.648438 C 245.011719 139.648438 245.011719 139.175781 244.539062 139.242188 C 244.066406 139.3125 243.457031 138.972656 242.847656 139.3125 C 242.238281 139.648438 242.511719 140.324219 241.761719 139.714844 C 241.019531 139.109375 240.003906 138.703125 240.003906 138.703125 C 240.003906 138.703125 239.734375 138.566406 239.328125 138.230469 C 238.925781 137.890625 238.515625 137.417969 238.175781 137.417969 C 237.839844 137.417969 236.417969 137.6875 236.417969 137.6875 C 236.417969 137.6875 235.402344 137.554688 235.0625 137.484375 C 234.726562 137.417969 234.523438 137.011719 234.320312 136.808594 C 234.117188 136.609375 233.980469 136.269531 233.640625 136.40625 C 233.304688 136.539062 232.695312 137.011719 232.289062 136.945312 C 231.882812 136.878906 231.410156 136.136719 231.410156 136.136719 C 231.410156 136.136719 232.222656 135.796875 232.695312 135.054688 C 233.167969 134.3125 233.238281 133.835938 233.238281 133.835938 C 233.238281 133.835938 232.628906 133.90625 232.019531 133.703125 C 231.410156 133.5 231.277344 133.363281 230.730469 133.230469 C 230.191406 133.09375 230.191406 133.164062 229.851562 133.09375 C 229.515625 133.027344 229.582031 131.945312 229.042969 132.6875 C 228.5 133.433594 228.769531 133.296875 228.226562 133.566406 C 227.6875 133.835938 227.890625 133.769531 227.210938 133.703125 C 226.535156 133.632812 225.996094 133.296875 225.726562 133.296875 C 225.453125 133.296875 222.070312 133.5 222.070312 133.5 L 220.105469 133.296875 C 219.496094 133.632812 218.683594 134.3125 218.683594 134.3125 C 218.683594 134.3125 217.195312 134.785156 216.722656 134.851562 C 216.246094 134.917969 216.449219 134.785156 215.84375 135.191406 C 215.234375 135.59375 214.828125 135.867188 214.351562 136.203125 C 213.878906 136.539062 213.8125 136.40625 213.945312 137.078125 C 214.082031 137.757812 214.761719 138.027344 214.625 138.296875 C 214.488281 138.566406 214.21875 138.839844 213.675781 139.445312 C 213.136719 140.054688 213.339844 139.582031 213 140.527344 C 212.660156 141.472656 213 141.339844 212.863281 142.082031 C 212.726562 142.824219 211.984375 142.824219 211.648438 143.230469 C 211.308594 143.636719 210.832031 143.566406 210.019531 143.566406 C 209.207031 143.566406 209.207031 142.757812 208.601562 143.230469 C 207.992188 143.703125 207.652344 143.097656 207.316406 143.703125 C 206.976562 144.3125 206.773438 145.527344 206.367188 145.730469 C 205.960938 145.933594 206.296875 145.863281 205.28125 146.203125 C 204.269531 146.542969 203.796875 146.542969 203.796875 146.542969 C 203.796875 146.542969 202.710938 146 202.441406 145.933594 C 202.171875 145.863281 201.96875 145.59375 201.496094 145.59375 C 201.019531 145.59375 201.289062 145.054688 200.75 145.527344 C 200.210938 146 200.140625 146.609375 199.597656 146.949219 C 199.054688 147.285156 198.988281 147.015625 198.648438 147.152344 C 198.3125 147.285156 197.976562 147.421875 197.566406 146.949219 C 197.160156 146.472656 197.5 145.796875 197.160156 145.933594 C 196.824219 146.066406 196.621094 146.066406 195.535156 146.273438 C 194.453125 146.472656 194.726562 146.742188 194.117188 146.339844 C 193.503906 145.933594 192.832031 145.527344 192.289062 145.324219 C 191.746094 145.121094 191.882812 145.054688 191.40625 144.851562 C 190.933594 144.648438 189.714844 145.324219 189.445312 145.460938 C 189.175781 145.59375 187.683594 145.863281 187.683594 145.863281 C 187.683594 145.863281 187.683594 145.796875 187.007812 145.796875 C 186.332031 145.796875 185.113281 145.933594 185.113281 145.933594 C 185.113281 145.933594 184.503906 146.609375 183.960938 146.542969 C 183.421875 146.472656 183.355469 146.472656 183.082031 147.015625 C 182.8125 147.554688 183.015625 147.355469 182.339844 147.894531 C 181.660156 148.433594 181.660156 148.433594 181.660156 148.433594 C 181.660156 148.433594 181.730469 148.90625 181.324219 149.042969 C 180.917969 149.179688 180.445312 148.90625 180.105469 148.839844 C 179.765625 148.773438 179.765625 148.570312 179.429688 148.976562 C 179.089844 149.382812 178.753906 149.917969 178.347656 149.917969 C 177.9375 149.917969 175.910156 149.917969 175.910156 149.917969 L 175.164062 149.851562 C 175.164062 149.851562 174.757812 149.988281 174.28125 149.515625 C 173.808594 149.042969 173.945312 149.449219 173.136719 148.636719 C 172.320312 147.824219 172.253906 147.894531 172.117188 147.488281 C 171.984375 147.082031 171.984375 147.082031 171.984375 147.082031 C 171.984375 147.082031 171.238281 146.949219 170.289062 146.8125 C 169.34375 146.675781 169.277344 146.949219 169.007812 146.609375 C 168.734375 146.273438 168.734375 145.863281 168.667969 145.527344 C 168.601562 145.191406 168.53125 145.054688 168.328125 144.582031 C 168.125 144.105469 167.988281 143.835938 167.988281 143.835938 L 167.3125 143.230469 L 167.109375 142.488281 L 166.773438 142.148438 C 166.773438 142.148438 166.09375 142.082031 165.417969 142.015625 C 164.742188 141.949219 164.808594 142.082031 164.332031 141.8125 C 163.859375 141.542969 163.65625 141.542969 163.726562 141.136719 C 163.792969 140.730469 164.265625 140.390625 163.929688 140.390625 C 163.589844 140.390625 163.386719 140.527344 162.78125 140.125 C 162.167969 139.714844 162.371094 140.257812 162.167969 139.714844 C 161.964844 139.175781 161.898438 137.960938 161.898438 137.960938 L 161.695312 137.554688 L 160.273438 137.011719 L 159.054688 136.878906 C 159.054688 136.878906 158.582031 136.808594 158.515625 136.472656 C 158.445312 136.136719 158.648438 135.59375 158.648438 135.59375 C 158.648438 135.59375 158.039062 135.867188 157.429688 135.527344 C 156.820312 135.191406 156.484375 134.851562 156.078125 134.511719 C 155.671875 134.175781 154.722656 133.230469 154.652344 132.824219 C 154.589844 132.417969 154.519531 132.011719 154.589844 131.808594 C 154.652344 131.605469 155.335938 128.90625 155.335938 128.90625 L 154.652344 128.703125 C 154.652344 128.703125 153.234375 128.566406 153.101562 128.296875 C 152.960938 128.027344 152.828125 127.957031 152.761719 127.621094 C 152.691406 127.28125 152.421875 126.335938 152.421875 126.335938 L 152.152344 125.253906 " fill-opacity="1" fill-rule="nonzero"/></g><path fill="#a6a6a6" d="M 192.964844 110.1875 C 192.964844 110.1875 192.628906 109.039062 192.558594 108.765625 C 192.492188 108.496094 192.761719 106.46875 192.761719 106.46875 L 193.167969 105.523438 L 193.574219 105.453125 L 193.980469 105.792969 L 194.589844 106.46875 L 194.859375 107.144531 L 195.0625 107.886719 L 194.859375 110.390625 L 194.792969 111.46875 L 194.859375 112.210938 L 194.925781 113.089844 L 195.0625 113.902344 L 194.792969 114.441406 L 194.253906 114.308594 L 193.574219 114.039062 C 193.574219 114.039062 193.101562 113.699219 192.964844 113.292969 C 192.832031 112.886719 192.898438 112.484375 192.898438 112.484375 L 192.964844 110.1875 " fill-opacity="1" fill-rule="nonzero"/><path fill="#a6a6a6" d="M 195.808594 112.617188 L 196.753906 112.617188 L 197.433594 112.886719 L 198.042969 113.429688 L 198.71875 113.632812 L 199.527344 114.105469 L 199.9375 114.644531 L 200.34375 115.117188 L 199.257812 115.253906 L 198.71875 115.117188 L 197.90625 115.253906 L 196.960938 114.914062 C 196.960938 114.914062 196.554688 114.78125 196.417969 114.578125 C 196.28125 114.375 196.214844 114.441406 196.011719 114.171875 C 195.808594 113.902344 195.808594 113.15625 195.808594 113.15625 L 195.808594 112.617188 " fill-opacity="1" fill-rule="nonzero"/><path fill="#a6a6a6" d="M 75.210938 37 C 75.210938 37 74.53125 37.539062 74.128906 37.539062 C 73.722656 37.539062 72.910156 37.539062 72.910156 37.539062 L 72.910156 35.917969 L 73.992188 35.378906 L 75.210938 36.054688 L 75.210938 37 " fill-opacity="1" fill-rule="nonzero"/></svg>