<svg xmlns="http://www.w3.org/2000/svg" xmlns:xlink="http://www.w3.org/1999/xlink" width="200" zoomAndPan="magnify" viewBox="0 0 150 149.999998" height="200" preserveAspectRatio="xMidYMid meet" version="1.0"><defs><clipPath id="6f24915388"><path d="M 0 22.5 L 150 22.5 L 150 127.5 L 0 127.5 Z M 0 22.5 " clip-rule="nonzero"/></clipPath></defs><g clip-path="url(#6f24915388)"><path fill="#737373" d="M 8.207031 22.761719 C 7.714844 22.753906 7.222656 22.796875 6.738281 22.886719 C 6.25 22.976562 5.78125 23.113281 5.320312 23.296875 C 4.863281 23.484375 4.425781 23.710938 4.011719 23.980469 C 3.597656 24.253906 3.214844 24.5625 2.863281 24.910156 C 2.511719 25.257812 2.195312 25.636719 1.917969 26.042969 C 1.644531 26.453125 1.410156 26.886719 1.21875 27.34375 C 1.027344 27.800781 0.882812 28.269531 0.785156 28.753906 C 0.6875 29.238281 0.640625 29.730469 0.640625 30.222656 C 0.640625 30.71875 0.6875 31.207031 0.785156 31.691406 C 0.882812 32.175781 1.027344 32.648438 1.21875 33.105469 C 1.410156 33.558594 1.644531 33.992188 1.917969 34.402344 C 2.195312 34.8125 2.511719 35.191406 2.863281 35.539062 C 3.214844 35.886719 3.597656 36.195312 4.011719 36.464844 C 4.425781 36.738281 4.863281 36.964844 5.320312 37.148438 C 5.78125 37.332031 6.25 37.472656 6.738281 37.5625 C 7.222656 37.652344 7.714844 37.695312 8.207031 37.6875 L 142.539062 37.6875 C 143.03125 37.695312 143.523438 37.652344 144.007812 37.5625 C 144.496094 37.472656 144.96875 37.332031 145.425781 37.148438 C 145.882812 36.964844 146.320312 36.738281 146.734375 36.464844 C 147.148438 36.195312 147.53125 35.886719 147.882812 35.539062 C 148.234375 35.191406 148.550781 34.8125 148.828125 34.402344 C 149.101562 33.992188 149.335938 33.558594 149.527344 33.105469 C 149.71875 32.648438 149.863281 32.175781 149.960938 31.691406 C 150.058594 31.207031 150.105469 30.71875 150.105469 30.222656 C 150.105469 29.730469 150.058594 29.238281 149.960938 28.753906 C 149.863281 28.269531 149.71875 27.800781 149.527344 27.34375 C 149.335938 26.886719 149.101562 26.453125 148.828125 26.042969 C 148.550781 25.636719 148.234375 25.257812 147.882812 24.910156 C 147.53125 24.5625 147.148438 24.253906 146.734375 23.980469 C 146.320312 23.710938 145.882812 23.484375 145.425781 23.296875 C 144.96875 23.113281 144.496094 22.976562 144.007812 22.886719 C 143.523438 22.796875 143.03125 22.753906 142.539062 22.761719 Z M 8.207031 67.539062 C 7.714844 67.53125 7.222656 67.570312 6.738281 67.664062 C 6.25 67.753906 5.78125 67.890625 5.320312 68.074219 C 4.863281 68.257812 4.425781 68.488281 4.011719 68.757812 C 3.597656 69.027344 3.214844 69.339844 2.863281 69.683594 C 2.511719 70.03125 2.195312 70.410156 1.921875 70.820312 C 1.644531 71.230469 1.410156 71.664062 1.21875 72.121094 C 1.027344 72.574219 0.882812 73.046875 0.785156 73.53125 C 0.6875 74.015625 0.640625 74.503906 0.640625 75 C 0.640625 75.496094 0.6875 75.984375 0.785156 76.46875 C 0.882812 76.953125 1.027344 77.425781 1.21875 77.878906 C 1.410156 78.335938 1.644531 78.769531 1.921875 79.179688 C 2.195312 79.589844 2.511719 79.96875 2.863281 80.316406 C 3.214844 80.660156 3.597656 80.972656 4.011719 81.242188 C 4.425781 81.511719 4.863281 81.742188 5.320312 81.925781 C 5.78125 82.109375 6.25 82.246094 6.738281 82.335938 C 7.222656 82.429688 7.714844 82.46875 8.207031 82.460938 L 142.539062 82.460938 C 143.03125 82.46875 143.523438 82.429688 144.007812 82.335938 C 144.496094 82.246094 144.96875 82.109375 145.425781 81.925781 C 145.882812 81.742188 146.320312 81.511719 146.734375 81.242188 C 147.148438 80.972656 147.53125 80.660156 147.882812 80.316406 C 148.234375 79.96875 148.550781 79.589844 148.828125 79.179688 C 149.101562 78.769531 149.335938 78.335938 149.527344 77.878906 C 149.71875 77.425781 149.863281 76.953125 149.960938 76.46875 C 150.058594 75.984375 150.105469 75.496094 150.105469 75 C 150.105469 74.503906 150.058594 74.015625 149.960938 73.53125 C 149.863281 73.046875 149.71875 72.574219 149.527344 72.121094 C 149.335938 71.664062 149.101562 71.230469 148.828125 70.820312 C 148.550781 70.410156 148.234375 70.03125 147.882812 69.683594 C 147.53125 69.339844 147.148438 69.027344 146.734375 68.757812 C 146.320312 68.488281 145.882812 68.257812 145.425781 68.074219 C 144.96875 67.890625 144.496094 67.753906 144.007812 67.664062 C 143.523438 67.570312 143.03125 67.53125 142.539062 67.539062 Z M 8.207031 112.3125 C 7.714844 112.304688 7.222656 112.347656 6.738281 112.4375 C 6.25 112.527344 5.78125 112.667969 5.320312 112.851562 C 4.863281 113.035156 4.425781 113.261719 4.011719 113.535156 C 3.597656 113.804688 3.214844 114.113281 2.863281 114.460938 C 2.511719 114.808594 2.195312 115.1875 1.917969 115.597656 C 1.644531 116.007812 1.410156 116.4375 1.21875 116.894531 C 1.027344 117.351562 0.882812 117.824219 0.785156 118.308594 C 0.6875 118.792969 0.640625 119.28125 0.640625 119.777344 C 0.640625 120.269531 0.6875 120.761719 0.785156 121.246094 C 0.882812 121.730469 1.027344 122.199219 1.21875 122.65625 C 1.410156 123.113281 1.644531 123.546875 1.917969 123.957031 C 2.195312 124.363281 2.511719 124.742188 2.863281 125.089844 C 3.214844 125.4375 3.597656 125.746094 4.011719 126.019531 C 4.425781 126.289062 4.863281 126.515625 5.320312 126.703125 C 5.78125 126.886719 6.25 127.023438 6.738281 127.113281 C 7.222656 127.203125 7.714844 127.246094 8.207031 127.238281 L 142.539062 127.238281 C 143.03125 127.246094 143.523438 127.203125 144.007812 127.113281 C 144.496094 127.023438 144.96875 126.886719 145.425781 126.703125 C 145.882812 126.515625 146.320312 126.289062 146.734375 126.019531 C 147.148438 125.746094 147.53125 125.4375 147.882812 125.089844 C 148.234375 124.742188 148.550781 124.363281 148.828125 123.957031 C 149.101562 123.546875 149.335938 123.113281 149.527344 122.65625 C 149.71875 122.199219 149.863281 121.730469 149.960938 121.246094 C 150.058594 120.761719 150.105469 120.269531 150.105469 119.777344 C 150.105469 119.28125 150.058594 118.792969 149.960938 118.308594 C 149.863281 117.824219 149.71875 117.351562 149.527344 116.894531 C 149.335938 116.4375 149.101562 116.007812 148.828125 115.597656 C 148.550781 115.1875 148.234375 114.808594 147.882812 114.460938 C 147.53125 114.113281 147.148438 113.804688 146.734375 113.535156 C 146.320312 113.261719 145.882812 113.035156 145.425781 112.851562 C 144.96875 112.667969 144.496094 112.527344 144.007812 112.4375 C 143.523438 112.347656 143.03125 112.304688 142.539062 112.3125 Z M 8.207031 112.3125 " fill-opacity="1" fill-rule="nonzero"/></g></svg>